<svg width="430" height="430" viewBox="0 0 430 430" fill="none" xmlns="http://www.w3.org/2000/svg">
<circle cx="215.283" cy="224.323" r="184.205" fill="url(#paint0_radial_330_1312)"/>
<g opacity="0.7">
<path d="M253.824 420.931C227.811 426.012 201.059 426.012 175.046 420.931C162.07 418.367 149.373 414.556 137.13 409.552C124.879 404.542 113.151 398.337 102.118 391.025C96.592 387.386 91.2521 383.478 86.0984 379.302C80.9448 375.126 76.0003 370.721 71.2651 366.089C89.9414 385.112 112.221 400.222 136.803 410.537C161.385 420.852 187.777 426.164 214.435 426.164C241.094 426.164 267.485 420.852 292.067 410.537C316.649 400.222 338.929 385.112 357.605 366.089C338.167 385.085 315.814 399.699 291.74 409.552C279.497 414.556 266.8 418.367 253.824 420.931Z" fill="white"/>
<path d="M276.392 404.648C269.703 405.458 262.972 405.891 256.226 406.102C239.967 406.628 225.68 405.875 205.49 405.956C195.373 406.039 185.261 405.498 175.212 404.336C161.804 402.802 148.548 400.147 135.583 396.399C109.594 389.11 85.2641 376.152 64.4011 358.885C66.9078 361.019 68.2481 362.294 74.2131 366.943C74.7111 367.328 77.7807 369.612 78.2909 369.976C83.7051 373.819 81.0243 371.908 84.5595 374.321C85.9687 375.265 87.3942 376.164 88.8277 377.087C90.2612 378.011 91.7109 378.873 93.1768 379.728C94.6428 380.582 96.1046 381.449 97.5989 382.25C103.551 385.519 109.676 388.464 115.947 391.07C133.234 398.209 153.324 403.624 174.989 406.24C183.426 407.249 191.911 407.817 200.408 407.94C237.173 408.09 242.672 408.524 256.291 408.017C263.073 407.758 269.86 407.264 276.607 406.398C290.229 404.713 303.645 401.514 315.77 395.436C318.827 393.925 321.755 392.196 324.638 390.386C339.265 381.327 353.268 368.782 364.449 358.873C354.033 367.583 343.683 376.346 332.543 383.923C316.515 394.865 303.366 401.445 276.392 404.648Z" fill="white"/>
<path d="M304.516 391.9C303.751 392.135 304.552 391.932 299.491 393.18C275.408 398.444 249.091 395.399 216.427 392.147C193.345 390.009 194.155 391.645 174.584 390.669C152.781 389.555 129.351 385.206 112.999 380.314C93.4685 374.475 77.2462 366.465 57.926 351.357C81.6399 371.033 102.527 380.238 132.943 386.83C165.671 393.901 187.741 392.904 195.455 392.941C217.845 393.066 250.241 399.274 279.008 397.59C320.852 395.188 336.325 376.747 370.968 351.357C348.522 366.83 331.688 382.38 309.469 390.329C308.703 390.633 308.335 390.73 304.516 391.9Z" fill="white"/>
<path d="M310.056 383.631C301.868 386.903 290.007 388.766 281.215 388.948C263.486 389.637 239.663 386.207 216.925 382.756C178.528 376.978 170.069 381.323 130.857 375.131C109.132 371.519 90.8199 367.947 69.6127 355.694C69.0296 355.374 65.5632 353.264 65.0003 352.896C60.4424 349.997 56.0349 346.868 51.7949 343.521C67.183 356.317 81.83 364.044 98.9108 369.511C101.62 370.32 103.098 370.847 109.379 372.345C112.894 373.188 116.421 373.937 119.96 374.653C155.559 381.914 171.125 380.173 195.24 382.141C217.861 383.975 253.958 391.933 281.288 390.693C288.558 390.445 295.777 389.384 302.811 387.531C304.548 386.996 306.314 386.543 308.015 385.911C326.837 378.982 343.391 365.959 361.128 353.673C367.409 349.429 366.02 350.361 372.434 346.291C373.965 345.343 375.528 344.448 377.075 343.525C370.255 347.344 369.198 347.894 360.877 353.276C340.492 366.765 327.902 376.443 310.056 383.631Z" fill="white"/>
<path d="M289.067 383.137C253.355 386.98 210.272 371.304 173.017 368.636C156.928 367.599 148.809 369.097 106.41 361.841C81.2388 357.552 68.5437 353.932 46.073 335.406C68.3857 354.843 81.5992 358.581 106.196 363.1C148.521 370.887 157.373 369.446 172.895 370.547C208.644 373.244 247.94 387.417 283.641 385.328C289.581 384.975 292.655 384.445 294.862 384.012C317.454 379.241 342.107 359.492 363.266 346.226C370.701 341.638 375.305 339.018 382.813 335.406C379.411 336.928 376.03 338.512 372.738 340.265C345.428 354.487 316.207 380.711 289.067 383.137Z" fill="white"/>
<path d="M296.907 375.872C261.612 385.623 211.058 366.109 172.446 359.601C151.874 356.151 156.973 360.051 126.472 355.438C99.1175 351.142 106.629 352.32 92.2496 350.077C72.322 346.894 62.749 346.1 40.74 327.015C49.0941 334.656 58.5092 342.197 69.4914 346.133C77.724 349.085 85.3168 350.065 103.459 353.118C125.759 356.896 133.85 358.407 143.464 359.29C149.566 359.885 155.033 359.63 160.795 359.994C163.703 360.172 166.643 360.537 172.134 361.492C196.767 365.785 225.138 374.856 251.164 378.5C290.12 384.17 304.212 377.079 328.457 361.95C353.539 346.254 367.996 335.114 388.138 326.999C373.155 332.648 360.873 340.164 347.38 348.652C322.897 364.149 309.951 372.292 296.907 375.872Z" fill="white"/>
<path d="M299.069 368.802C294.526 370.612 289.781 371.865 284.937 372.536C278.107 373.326 271.211 373.381 264.369 372.702C235.796 370.061 202.315 358.2 172.081 350.753C135.458 341.8 145.019 348.38 107.342 341.844C96.6716 339.953 83.4176 338.751 71.9656 337.107C68.1834 336.544 62.4574 335.863 55.0225 332.199C47.94 328.688 41.6876 323.695 35.8401 318.357C41.724 324.027 47.5836 328.91 54.7836 332.676C59.2132 334.993 63.9689 336.623 68.888 337.511C82.7818 339.86 89.8523 340.374 101.252 342.197C110.112 343.63 121.604 346.368 136.664 346.975C140.599 347.039 144.526 347.327 148.428 347.838C179.119 351.887 227.875 371.479 264.187 374.605C274.627 375.471 283.285 374.807 288.136 373.795C314.162 368.745 346.546 340.431 373.961 326.602C383.939 321.532 387.907 320.248 393.03 318.357C388.515 319.896 386.344 320.479 379.136 323.646C350.154 336.669 323.589 359.435 299.069 368.802Z" fill="white"/>
<path d="M285.2 365.858C255.076 371.122 207.008 351.13 172.016 340.164C135.348 328.761 131.08 331.988 111.966 329.712C110.942 329.607 108.86 329.307 105.977 328.817L99.9637 327.744C78.1977 324.006 74.2373 325.416 63.4535 324.909C62.6152 324.865 61.0724 324.804 58.9262 324.505C53.8967 323.67 52.3822 323.051 48.766 321.609C46.9157 320.781 45.1207 319.834 43.3923 318.774C38.9783 316.11 34.9167 312.7 31.3572 309.461C40.1324 317.823 48.3367 323.78 60.3556 325.351C61.372 325.497 62.3804 325.557 63.4089 325.634C74.2616 326.351 78.465 325.059 99.737 328.971C109.67 330.862 111.246 331.3 123.985 332.211C132.801 332.826 136.98 333.203 143.557 334.466C186.886 343.723 241.376 371.236 279.352 368.336C281.927 368.158 284.488 367.825 287.022 367.34C289.087 366.891 289.452 366.818 290.039 366.656C320.111 359.164 355.422 325.197 388.875 312.482C393.018 310.898 391.143 311.554 397.513 309.469L394.589 310.347C354.952 322.249 318.912 360.189 285.2 365.858Z" fill="white"/>
<path d="M386.692 305.31C385.988 305.589 381.643 307.513 380.958 307.841C374.365 310.999 367.948 314.514 361.735 318.369C344.177 329.376 330.801 339.159 314.065 348.218C290.723 360.905 278.113 361.553 254.468 356.694C217.168 348.935 184.979 330.465 148.558 319.139C124.228 311.655 117.028 313.676 99.1054 311.42C90.8606 310.25 82.4538 309.424 74.0714 309.89C56.7517 310.882 48.2882 317.462 27.324 300.402C28.9073 301.758 30.5271 303.074 32.1834 304.33C37.6866 308.379 41.4972 310.108 46.0569 311.489C52.1838 312.996 55.2979 312.765 61.684 312.084C69.7829 311.19 76.9506 309.841 92.7355 311.825C94.8007 312.076 96.8376 312.4 98.9231 312.688C112.173 314.502 121.414 313.903 136.025 317.47C176.179 327.189 221.615 355.357 266.471 360.699C282.175 362.513 294.226 361.055 314.794 349.575C339.71 335.729 356.135 321.054 381.153 308.27C381.784 307.954 386.065 305.962 386.822 305.646C392.532 303.289 390.321 304.139 395.557 302.256C396.594 301.884 395.642 302.183 401.534 300.41C395.557 302.03 396.573 301.758 395.512 302.111C390.394 303.819 392.236 303.143 386.692 305.31Z" fill="white"/>
<path d="M279.312 350.494C278.733 350.518 278.397 350.494 276.161 350.449C255.675 349.02 237.1 341.707 218.484 333.393C197.395 324.026 171.559 310.752 148.367 301.876C124.33 292.562 113.177 293.939 104.398 293.424C100.008 293.157 88.0907 291.675 78.7647 292.27C78.2302 292.27 77.6916 292.327 77.1449 292.376C74.4626 292.565 71.7953 292.926 69.1593 293.457C61.7892 294.878 54.7674 298.316 47.4945 298.997C38.6787 299.806 31.3167 295.806 23.7361 291.153C29.1786 294.672 34.7345 298.037 41.1003 299.191C51.1552 301.017 58.6185 296.251 70.9006 294.105C75.6229 293.402 80.3995 293.131 85.171 293.295C93.2133 293.526 100.502 294.51 104.297 294.781C111.703 295.295 115.263 294.842 123.329 296.348C136.264 298.778 148.331 303.176 171.203 313.607C211.236 331.704 240.36 348.87 272.821 352.102C288.642 353.576 302.208 348.485 316.017 340.893C349.47 322.601 376.204 297.846 405.106 291.165C375.86 297.203 348.056 322.079 315.284 339.528C303.807 345.667 292.246 350.283 279.312 350.494Z" fill="white"/>
<path d="M304.334 336.908C288.654 343.1 275.315 345.193 241.465 331.344C233.391 328.011 225.526 324.168 217.768 320.119C195.852 308.728 170.717 293.157 147.865 283.349C143.816 281.616 139.722 279.996 135.526 278.571C121.074 273.829 108.249 273.756 96.3597 273.12C91.9603 272.847 87.5492 272.814 83.1462 273.023C65.4944 274.072 56.1765 282.77 45.9151 285.718C36.3583 288.602 27.2186 284.503 20.6179 281.705C27.3563 284.734 34.3862 287.986 42.8092 286.897C54.5081 285.277 64.0488 275.088 83.2069 274.161C87.5706 274.001 91.9398 274.079 96.2949 274.396C107.905 275.141 120.742 275.339 134.988 280.183C160.803 289.185 190.506 308.177 216.836 321.917C224.636 325.966 232.56 329.821 240.728 333.17C256.327 339.516 274.234 345.61 290.663 342.804C300.442 340.864 308.132 337.487 316.899 332.68C349.587 314.782 374.929 288.27 408.244 281.693C378.277 286.885 353.981 308.707 327.509 324.747C320.75 328.87 312.562 333.656 304.334 336.908Z" fill="white"/>
<path d="M252.346 324.743C239.935 319.523 227.989 312.894 216.585 305.832C208.891 301.114 201.351 296.178 193.766 291.254C186.182 286.33 178.548 281.486 170.781 276.842C156.608 268.37 137.478 258.068 121.256 254.699C116.534 253.699 112.687 253.508 107.642 253.484C105.374 253.484 103.118 253.484 100.875 253.452C95.1854 253.33 88.0421 253.193 80.4979 254.513C55.1926 258.967 51.3172 276.246 31.2277 274.76C26.7327 274.436 22.3188 273.278 17.9858 272.096C24.627 274.064 31.1669 275.902 37.9984 274.93C49.0981 273.42 55.6218 264.904 67.8635 259.384C79.4329 254.144 92.0795 254.525 100.843 254.78C113.57 255.144 120.92 253.508 146.124 265.483C154.223 269.37 162.083 273.792 169.793 278.441C177.504 283.09 185.125 287.941 192.689 292.87C200.254 297.798 207.818 302.75 215.524 307.496C223.23 312.242 231.103 316.749 239.214 320.815C249.139 325.675 261.842 331.235 272.63 333.433C274.129 333.733 276.246 334.134 277.708 334.292C289.812 335.912 298.174 332.875 301.471 331.842C301.904 331.7 304.107 330.902 304.686 330.655C308.905 328.946 313.009 326.966 316.972 324.727C353.418 304.374 379.95 277.145 410.884 272.084C379.618 276.493 352.466 303.621 316.227 323.383C293.465 335.819 279.154 336.114 252.346 324.743Z" fill="white"/>
<path d="M263.195 318.799C254.64 315.248 246.355 311.081 238.404 306.33C230.43 301.592 222.732 296.393 215.168 290.999C192.231 274.663 159.098 247.479 133.008 238.129C130.238 237.127 127.409 236.299 124.536 235.65C123.961 235.525 123.394 235.375 122.815 235.274C121.657 235.055 120.507 234.812 119.345 234.65C110.262 233.196 100.474 233.237 91.314 234.014C86.6247 234.4 81.9947 235.318 77.5133 236.752C53.7752 244.324 49.6285 263.175 29.6766 263.734C25.0359 263.875 20.4073 263.118 15.8152 262.422C26.0604 264.203 34.0379 265.6 43.125 260.454C51.1551 255.926 56.3992 249.034 65.3284 243.604C73.1358 238.882 81.251 236.059 91.4193 235.29C100.51 234.606 110.177 234.666 119.089 236.185C120.231 236.359 121.357 236.61 122.487 236.833C124.224 237.153 127.678 238.141 128.343 238.327C155.851 247.159 186.25 272.796 213.993 292.627C221.594 298.029 229.349 303.249 237.396 308.015C238.392 308.626 239.42 309.193 240.433 309.768L243.486 311.493C244.51 312.056 245.551 312.591 246.584 313.137C247.616 313.684 248.645 314.247 249.698 314.757L252.856 316.292L254.436 317.061C287.237 332.186 301.187 329.21 340.285 302.155C368.506 282.604 389.102 265.54 413.034 262.43C388.737 265.05 367.222 282.369 339.564 301.106C304.334 324.958 289.812 329.631 263.195 318.799Z" fill="white"/>
<path d="M339.374 293.015C335.433 295.756 331.445 298.418 327.412 301.001C302.131 317.199 287.043 321.026 261 307.885C252.515 303.479 244.35 298.482 236.566 292.93C235.59 292.242 234.606 291.562 233.634 290.857L230.742 288.731L229.297 287.67L227.867 286.581L225.008 284.406C221.229 281.466 217.48 278.479 213.763 275.445C182.659 250.119 147.258 217.241 117.267 214.022C109.739 213.212 98.5952 213.787 91.9378 214.706C90.7229 214.844 89.5445 215.111 88.3499 215.322C78.789 217.228 69.8612 221.509 62.3886 227.77C50.9123 236.889 45.5832 250.637 28.4862 252.759C23.7321 253.359 18.9051 253.035 14.1267 252.642C21.4684 253.399 28.6442 253.958 35.589 251.5C48.4057 246.997 54.4799 233.702 67.3168 225.34C69.9409 223.648 69.0176 224.21 71.8847 222.55C80.0201 218.197 87.212 216.391 95.6633 215.621C102.296 215.091 110.493 214.812 117.093 215.573C146.007 218.812 181.399 251.642 212.487 276.996C216.215 280.041 219.983 283.033 223.789 285.973L226.665 288.156L228.102 289.249L229.56 290.314L232.476 292.449C233.451 293.153 234.448 293.838 235.428 294.534C249.196 304.176 260.044 309.861 266.742 312.615C268.395 313.332 271.914 314.64 273.59 315.11C275.918 315.842 278.29 316.424 280.693 316.851C283.099 317.288 285.537 317.532 287.982 317.58C290.434 317.628 292.885 317.461 295.308 317.082C295.781 317.021 298.45 316.507 298.908 316.381C300.09 316.081 301.281 315.802 302.435 315.413C306.622 314.174 311.995 311.769 315.798 309.675C351.519 289.78 382.064 256.582 412.949 252.849L414.739 252.634L412.945 252.812C389.021 255.197 365.076 275.173 339.374 293.015Z" fill="white"/>
<path d="M326.412 293.372C322.285 296.053 318.025 298.522 313.648 300.77C309.25 302.953 304.694 304.84 299.96 306.002C298.77 306.253 297.592 306.573 296.385 306.727C295.192 306.947 293.987 307.092 292.777 307.16C292.175 307.231 291.569 307.261 290.962 307.249C289.749 307.304 288.534 307.268 287.326 307.14C286.723 307.112 286.121 307.051 285.524 306.958C283.121 306.606 280.747 306.085 278.417 305.399C270.006 302.872 264.949 300.029 261.543 298.223C251.577 292.562 243.515 286.69 234.278 279.199C226.584 272.991 219.214 266.402 211.961 259.664C191.932 240.963 165.128 214.516 143.209 202.845C138.274 200.116 133.075 197.894 127.691 196.216C125.276 195.524 122.82 194.983 120.337 194.596C114.688 193.645 107.605 193.357 99.7615 194.167C99.0002 194.232 98.5142 194.305 96.044 194.637C92.3372 195.201 88.6722 196.013 85.0739 197.067C80.1052 198.614 78.5138 199.423 74.7275 201.448C74.3225 201.671 72.1682 202.999 71.5486 203.473C69.2769 205.064 70.2406 204.376 68.5277 205.7C61.5059 211.195 55.5693 218.982 50.9893 224.984C39.6507 239.829 31.6651 243.531 12.9241 242.769C23.9468 243.441 32.6451 242.911 41.2705 236.229C51.7547 228.094 57.1243 214.767 72.1601 204.416C72.7554 203.983 74.8773 202.704 75.2823 202.485C79.0159 200.525 80.5466 199.78 85.406 198.269C88.0731 197.52 90.7762 196.905 93.505 196.427C105.402 194.552 115.563 194.613 127.201 197.828C155.288 207.117 179.504 232.358 210.584 261.15C217.873 267.888 225.288 274.513 233.018 280.749C236.869 283.896 240.846 286.888 244.867 289.82C248.888 292.752 253.043 295.49 257.356 298.033C261.662 300.585 266.15 302.817 270.784 304.71C275.448 306.616 280.321 307.963 285.301 308.723C285.929 308.817 286.562 308.877 287.196 308.902C288.46 309.026 289.731 309.055 290.999 308.991C291.632 308.999 292.265 308.965 292.894 308.889C294.157 308.812 295.413 308.655 296.656 308.42C297.911 308.254 299.126 307.913 300.357 307.642C312.595 304.512 325.974 295.85 339.439 286.066C368.51 264.932 390.151 244.709 415.974 242.765C389.952 244.187 367.538 264.503 338.71 285.03C334.657 287.905 330.579 290.699 326.412 293.372Z" fill="white"/>
<path d="M374.414 249.577C370.171 252.444 366.016 255.432 361.914 258.485C353.713 264.608 345.716 270.966 337.459 276.979C329.587 282.71 320.192 289.128 311.639 293.177C302.325 297.575 292.489 299.912 282.434 297.741C280.597 297.339 278.791 296.808 277.028 296.154C269.051 293.319 262.195 289.448 255.282 284.665C251.111 281.782 247.102 278.644 243.203 275.376C241.247 273.756 239.331 272.071 237.42 270.387L234.585 267.82C233.646 266.961 232.694 266.115 231.775 265.232C224.328 258.271 217.197 250.982 210.126 243.599C195.994 228.859 182.136 213.722 166.586 200.31C158.835 193.612 150.7 187.23 141.662 182.213C137.134 179.697 132.355 177.661 127.403 176.139C114.611 172.345 97.0118 172.944 81.8221 179.253C79.4403 180.261 77.1319 181.434 74.9137 182.764C68.2522 186.635 62.9191 192.734 58.5821 199.027C50.965 210.013 48.272 216.934 40.5942 223.627C32.5438 230.605 22.9303 232.876 12.1951 232.82C22.9951 233.091 32.6329 231.018 40.9465 224.036C48.4786 217.833 52.52 209.207 59.4 199.598C68.228 186.967 75.598 183.716 78.8619 181.99C79.2669 181.776 81.8869 180.589 82.3202 180.435C97.3033 174.361 114.587 173.985 126.921 177.767C141.208 182.132 153.899 191.762 165.335 201.744C180.723 215.107 194.54 230.196 208.664 244.98C215.747 252.363 222.927 259.672 230.426 266.661C231.354 267.548 232.314 268.399 233.261 269.261L236.096 271.841C238.019 273.533 239.951 275.218 241.927 276.858C245.867 280.15 249.921 283.337 254.173 286.224C258.408 289.17 262.855 291.798 267.479 294.085C270.374 295.525 273.357 296.777 276.413 297.834C278.25 298.502 280.13 299.044 282.041 299.454C297.782 302.771 312.247 295.631 325.622 286.828C329.902 283.993 334.077 281.029 338.175 277.98C346.392 271.869 354.353 265.451 362.472 259.247C368.701 254.464 374.661 250.123 381.165 245.916C383.554 244.442 381.57 245.592 386.061 242.923C390.714 240.303 395.286 237.857 401.647 235.707C402.222 235.492 404.887 234.703 405.292 234.593C406.584 234.29 408.07 233.844 410.9 233.379C411.147 233.346 413.504 233.03 413.735 233.006L416.602 232.804C406.162 233.103 396.618 236.513 387.446 241.502C382.964 243.965 378.615 246.66 374.414 249.577Z" fill="white"/>
<path d="M72.5569 167.514C73.5733 166.704 74.6627 165.979 75.7317 165.234C78.1614 163.752 78.1128 163.667 82.5754 161.468C84.9525 160.395 87.3968 159.478 89.8928 158.722C92.3932 157.98 94.9371 157.393 97.5099 156.965C100.084 156.545 102.68 156.275 105.285 156.155C108.543 156.012 111.808 156.108 115.052 156.442C123.496 157.265 131.696 159.733 139.191 163.707C148.197 168.615 156.762 175.584 164.173 182.61C179.059 196.719 194.265 215.006 206.648 229.37C213.556 237.347 220.493 245.317 227.79 252.982C235.087 260.648 242.773 267.99 251.075 274.574C264.301 285.155 272.003 288.035 274.789 289.209C275.408 289.468 276.048 289.671 276.68 289.901C279.857 291.041 283.159 291.798 286.516 292.157C287.865 292.218 289.217 292.368 290.566 292.303C290.902 292.303 291.242 292.303 291.578 292.279C292.589 292.233 293.598 292.136 294.599 291.987C304.97 290.59 314.895 284.925 323.646 279.191C328.072 276.279 332.352 273.161 336.552 269.954C340.751 266.746 344.869 263.442 348.984 260.142C353.098 256.841 357.204 253.517 361.294 250.192C377.601 236.966 395.921 223.198 416.926 222.89C395.816 222.793 377.265 236.359 360.675 249.419L354.483 254.351L348.279 259.251C344.132 262.519 339.99 265.779 335.782 268.941C331.575 272.104 327.278 275.161 322.877 278.008C313.563 283.985 303.358 289.654 292.461 290.501C289.363 290.711 288.646 290.525 286.686 290.428C286.046 290.351 285.411 290.246 284.775 290.157C284.134 290.083 283.5 289.965 282.876 289.804C281.607 289.557 280.354 289.231 279.126 288.828C278.373 288.63 275.886 287.707 275.481 287.537C271.862 286.064 268.376 284.284 265.062 282.216C260.621 279.436 256.359 276.381 252.302 273.068C244.134 266.452 236.433 259.281 229.252 251.605C222.012 243.976 215.103 236.011 208.195 228.029C196.046 213.933 179.966 194.746 165.501 181.197C157.742 173.981 149.424 167.254 140.034 162.168C130.578 157.114 119.871 154.64 109.213 154.575C107.877 154.543 106.544 154.62 105.212 154.66C102.549 154.805 99.8961 155.103 97.2669 155.551C94.6388 156.017 92.0411 156.64 89.4879 157.418C84.6487 159.038 84.7783 159.099 82.0246 160.297C77.5418 162.549 77.5378 162.662 75.0474 164.217C71.0262 167.052 70.844 167.348 68.7625 169.17C65.3448 172.523 64.0854 173.944 61.0685 178.334C55.0833 187.352 51.4874 197.427 45.6804 205.992C37.5814 217.8 26.2064 222.692 11.9521 222.927C53.7389 223.02 49.3493 184.53 72.5569 167.514Z" fill="white"/>
<path d="M24.6431 210.782C27.3198 209.867 26.8136 210.049 27.4008 209.802C30.7943 208.369 29.0449 209.106 30.9522 208.182C32.1346 207.632 33.224 206.907 34.3497 206.251C34.8924 205.89 35.4228 205.51 35.9695 205.141C36.5145 204.781 37.0378 204.389 37.5367 203.967C38.5754 203.177 39.5666 202.327 40.505 201.42C41.0395 200.958 42.8982 199.035 43.2465 198.63C45.8505 195.703 48.1565 192.525 50.1306 189.142C55.3099 180.354 60.388 170.356 66.8753 163.079C68.5672 161.151 70.397 159.348 72.3502 157.685C73.8285 156.459 75.3781 155.322 76.9909 154.28C77.5295 153.94 78.0924 153.632 78.6431 153.304C96.1855 143.273 119.442 142.176 137.713 151.571C142.314 153.877 146.726 156.54 150.91 159.536C155.107 162.528 159.144 165.737 163.006 169.149C166.886 172.555 170.644 176.11 174.321 179.751C195.131 200.379 208.652 218.112 227.28 236.768C234.63 244.134 242.336 251.188 250.641 257.509C251.658 258.319 252.727 259.077 253.792 259.834L256.975 262.114C287.496 283.171 304.573 278.227 335.717 256.363C344.221 250.407 352.482 244.097 360.897 238.039C365.092 234.998 369.344 232.03 373.689 229.207C375.849 227.793 378.047 226.421 380.282 225.093C382.517 223.765 384.774 222.497 387.053 221.291C391.622 218.851 396.409 216.845 401.352 215.297C406.304 213.734 411.469 212.948 416.663 212.965C400.801 212.661 385.259 219.724 360.322 237.234C340.884 250.897 323.686 264.77 308.14 270.585C306.707 271.136 304.901 271.731 304.496 271.857C302.068 272.642 299.582 273.233 297.061 273.622C296.429 273.699 295.797 273.748 295.17 273.813C294.541 273.892 293.908 273.928 293.275 273.922C292.007 273.98 290.736 273.953 289.472 273.841C288.662 273.841 286.099 273.477 285.694 273.392C284.439 273.187 283.195 272.917 281.968 272.582C278.364 271.743 271.784 269.265 264.491 264.798C262.288 263.474 260.142 262.049 258.012 260.575L254.93 258.303C253.881 257.55 252.828 256.805 251.828 255.991C243.671 249.64 235.947 242.753 228.705 235.375C210.859 217.464 196.617 199.018 175.705 178.366C172 174.722 168.218 171.13 164.274 167.712C160.342 164.273 156.235 161.041 151.967 158.03C147.693 155.002 143.19 152.312 138.499 149.983C134.973 148.204 131.279 146.78 127.472 145.731C110.33 141.123 92.0227 144.018 77.9911 152.21C76.1324 153.344 77.3108 152.526 73.8769 154.924C68.4181 159.293 64.81 162.885 59.1043 171.842C56.3749 176.074 52.3943 183.63 49.4665 188.769C46.6845 193.454 45.6519 194.791 42.797 198.245C42.4568 198.65 40.6386 200.59 40.1284 201.043C38.976 202.172 37.7591 203.234 36.4838 204.222C33.5277 206.474 30.2871 208.326 26.846 209.729L24.1085 210.713C20.8689 211.653 21.4845 211.487 20.8366 211.629C17.9997 212.314 15.1104 212.761 12.199 212.965C15.2814 212.806 18.3446 212.384 21.3549 211.702C24.558 210.847 24.1814 210.94 24.6431 210.782Z" fill="white"/>
<path d="M107.241 134.968C124.083 133.287 136.397 137.802 150.076 146.578C152.193 147.962 154.276 149.403 156.325 150.898C158.349 152.409 160.374 153.952 162.338 155.559C166.278 158.758 170.101 162.111 173.847 165.558C175.718 167.279 177.564 169.032 179.411 170.777C200.403 191.304 210.997 203.927 227.535 220.039C234.818 227.242 242.476 234.056 250.475 240.453C258.639 246.851 267.301 252.577 276.927 256.185C277.522 256.436 278.142 256.61 278.757 256.825C280.851 257.501 279.462 257.113 282.479 257.939C283.1 258.125 283.732 258.278 284.37 258.396C285.634 258.71 286.918 258.935 288.213 259.073C290.181 259.295 288.306 259.202 292.116 259.364C292.768 259.389 293.421 259.38 294.072 259.336C294.724 259.303 295.376 259.307 296.024 259.243C297.966 259.076 299.896 258.787 301.803 258.38C306.816 257.165 311.898 255.76 321.532 250.646C333.944 244.021 349.068 233.346 360.294 225.944C364.542 223.109 368.83 220.368 373.203 217.756C386.393 209.855 400.687 202.667 415.954 203.056C398.383 202.246 381.128 211.37 359.755 225.118C341.532 236.861 322.82 250.378 306.942 255.375C305.727 255.72 304.536 256.125 303.297 256.384C301.777 256.771 300.237 257.077 298.685 257.299C298.466 257.331 296.105 257.574 295.886 257.599C295.263 257.655 294.639 257.643 294.016 257.671C293.392 257.704 292.768 257.704 292.145 257.671C290.901 257.643 289.659 257.542 288.427 257.368C286.403 257.06 288.055 257.416 283.823 256.501L281.102 255.744C280.697 255.622 277.988 254.715 277.534 254.529C268.115 250.945 259.619 245.256 251.654 238.951C243.73 232.571 236.141 225.787 228.916 218.626C212.904 202.967 201.906 189.96 180.767 169.356C178.905 167.603 177.046 165.845 175.163 164.116C171.389 160.662 167.538 157.276 163.537 154.065C161.544 152.445 159.487 150.902 157.43 149.38C141.325 137.697 126.654 131.291 107.079 133.417C59.7684 138.859 58.6508 173.252 40.3349 190.895C32.9405 198.079 23.1367 201.691 12.9158 203.044C23.246 201.877 33.0782 198.468 40.7034 191.276C59.6551 173.572 60.6755 139.896 107.241 134.968Z" fill="white"/>
<path d="M73.9901 140.264C74.9337 139.455 75.8489 138.645 76.8248 137.879C77.3148 137.499 77.7886 137.102 78.2907 136.737C80.8864 134.871 80.0563 135.458 81.3359 134.619C84.4341 132.581 87.7344 130.867 91.1843 129.505C98.6904 126.55 106.618 124.808 114.671 124.342C115.886 124.301 117.138 124.237 118.373 124.269C122.074 124.287 125.765 124.658 129.395 125.379C130.61 125.613 129.983 125.472 132.983 126.225C149.416 131.287 161.532 140.779 173.988 151.194C174.948 152.004 175.875 152.814 176.823 153.624C177.771 154.434 178.702 155.244 179.629 156.094C181.472 157.774 183.347 159.423 185.157 161.14C205.813 180.391 228.75 206.053 250.601 223.012C258.526 229.179 267.026 234.755 276.348 238.724C287.767 243.547 296.024 243.936 306.152 241.441C322.564 237.319 341.872 224.433 359.468 213.864C376.556 203.595 395.488 192.118 414.743 193.179C399.687 192.045 385.279 198.492 372.053 205.648C340.087 223.06 313.522 243.81 291.185 241.089C277.481 239.514 262.624 230.022 251.779 221.505C228.891 203.437 208.664 180.257 186.493 159.698C184.671 157.977 182.784 156.325 180.933 154.636C179.998 153.798 179.042 152.984 178.099 152.158C177.155 151.332 176.22 150.498 175.264 149.704C173.336 148.084 171.425 146.464 169.461 144.905C167.497 143.346 165.509 141.803 163.488 140.305C159.443 137.3 155.225 134.534 150.858 132.02C146.469 129.495 141.861 127.374 137.089 125.682C122.147 120.377 105.289 122.398 90.6903 128.205C87.7599 129.403 84.9333 130.84 82.239 132.502C81.6963 132.83 81.1821 133.194 80.6516 133.538C78.0237 135.291 75.5316 137.239 73.1964 139.365C57.209 154.166 53.3823 169.178 40.8815 180.63C33.4021 187.514 24.0396 191.252 14.1548 193.183C51.1145 186.749 50.8554 161.285 73.9901 140.264Z" fill="white"/>
<path d="M73.0671 134.891C74.7921 133.193 76.6104 131.592 78.5136 130.096C79.4815 129.367 80.429 128.618 81.4333 127.942C89.4232 122.43 98.4726 118.64 108.006 116.814C124.544 113.574 138.657 114.996 153.575 123.058C158.718 125.852 157.479 125.152 159.913 126.63C168.105 131.611 175.588 136.778 186.323 146.015C193.702 152.368 200.756 159.103 207.745 165.918C231.637 189.154 253.909 212.313 279.324 222.704C280.464 223.196 281.627 223.629 282.811 224.004C283.394 224.221 283.989 224.405 284.592 224.555C285.789 224.921 287.006 225.217 288.237 225.442C310.193 229.985 332.036 216.168 358.358 201.687C379.221 190.142 396.079 182.116 413.075 183.388C408.196 182.949 403.279 183.195 398.468 184.121C363.784 190.839 323.877 227.904 293.906 224.543C288.642 224.02 284.593 223.251 276.68 219.639C253.877 209.195 232.828 187.571 209.171 164.472C202.165 157.653 195.062 150.903 187.623 144.521C180.184 138.139 172.405 132.097 164.055 126.901C157.981 123.257 159.925 124.334 152.822 120.543C149.504 118.874 146.06 117.471 142.52 116.348C130.951 112.615 119.584 112.841 107.694 115.291C98.0484 117.296 88.7305 121.155 80.7004 126.897C79.6839 127.598 78.7202 128.371 77.7442 129.12C72.7269 133.316 68.9163 136.814 60.5501 148.246C57.6749 152.198 54.8808 156.191 51.8437 159.99C50.155 162.16 48.0128 164.626 47.1098 165.541C45.4487 167.316 43.6784 168.985 41.809 170.539C34.3539 176.811 25.2952 181.043 15.8193 183.371C49.5597 175.447 54.0142 154.247 73.0671 134.891Z" fill="white"/>
<path d="M123.252 106.767C127.824 106.233 132.72 106.03 137.292 106.601C161.901 109.581 190.373 133.676 208.855 150.461C231.617 171.114 252.739 192.471 275.842 203.833C279.079 205.427 282.41 206.823 285.815 208.017C288.255 208.852 290.763 209.473 293.311 209.871C295.976 210.191 296.04 210.207 296.474 210.228C298.888 210.415 301.312 210.415 303.726 210.228C304.269 210.207 306.881 209.916 307.326 209.823C310.895 209.296 314.416 208.483 317.855 207.393C341.532 199.954 372.309 178.662 396.674 174.26C401.355 173.394 406.134 173.186 410.872 173.645C406.132 173.085 401.337 173.192 396.626 173.96C376.455 177.249 352.397 191.644 330.724 201.031C319.718 205.838 313.644 207.308 307.112 208.32C306.678 208.389 304.127 208.648 303.609 208.66C300.398 208.874 297.173 208.738 293.991 208.256C292.549 208.034 291.119 207.736 289.707 207.365C287.65 206.798 289.407 207.365 285.528 206.077C284.378 205.627 280.438 204.141 276.619 202.206C260.356 194.107 244.729 180.516 231.224 168.267C224.19 161.869 217.266 155.337 210.211 148.922C203.157 142.508 195.945 136.247 188.393 130.388C177.864 122.224 163.966 112.926 151.542 108.294C138.908 103.572 129.209 103.681 115.955 106.168C113.611 106.617 111.258 107.095 108.929 107.702C99.5772 110.044 90.765 114.169 82.9762 119.851C79.1357 122.726 75.5544 125.932 72.2734 129.432C58.8007 143.553 51.4103 158.184 31.2317 168.388C26.9831 170.53 22.5532 172.292 17.9939 173.653C69.2038 159.5 60.8821 113.979 123.252 106.767Z" fill="white"/>
<path d="M56.367 143.31C71.8199 129.031 82.1178 111.319 110.845 102.45C128.683 97.0928 147.869 97.1171 164.48 104.641C176.305 110.035 185.218 116.259 189.753 119.365C192.993 121.6 198.529 125.881 199.448 126.585C201.25 128.019 203.056 129.452 204.846 130.906C206.636 132.36 208.413 133.83 210.171 135.328C217.237 141.265 224.162 147.392 231.168 153.442L236.432 157.957L241.765 162.411C245.341 165.351 248.945 168.271 252.638 171.081C265.73 181.067 285.998 194.418 302.54 194.706C329.526 195.172 365.489 168.526 394.423 164.274C398.995 163.587 403.64 163.531 408.228 164.108C403.641 163.428 398.982 163.382 394.383 163.97C365.149 167.74 328.906 193.88 302.576 193.155C282.058 192.596 256.27 171.851 243.008 160.905L237.704 156.45L232.439 151.935C225.458 145.885 218.537 139.742 211.451 133.769C197.415 121.953 182.181 110.513 165.246 102.884C148.145 95.2422 128.343 95.307 110.363 100.964C75.7115 112.056 67.9567 135.348 45.2188 151.583C37.6792 156.942 29.3878 161.156 20.614 164.088C29.4885 161.363 37.8959 157.302 45.5468 152.044C49.3571 149.394 52.973 146.475 56.367 143.31Z" fill="white"/>
<path d="M47.8752 142.905C72.1965 127.294 81.563 107.172 112.845 96.5948C119.163 94.4836 125.674 93.0023 132.283 92.1728C157.872 89.1842 171.729 96.5665 177.585 99.1865C183.732 102.256 193.588 106.99 211.483 120.487C225.749 131.242 239.238 143.075 253.626 153.834C260.818 159.204 268.233 164.339 276.105 168.741C303.986 184.319 314.316 180.974 353.317 165.906C357.488 164.286 361.667 162.666 365.87 161.184C373.827 158.39 379.371 156.531 387.604 154.972C393.318 154.085 395.484 153.992 400.117 154.118C401.793 154.217 403.462 154.407 405.118 154.685L403.462 154.409C389.199 152.028 371.875 157.961 352.956 164.983C332.709 172.535 315.919 179.261 301.528 177.018C286.306 174.677 267.107 161.63 254.784 152.316C229.487 133.259 209.43 113.21 181.456 98.9395C173.049 94.7604 169.307 93.5455 165.764 92.5291C149.404 87.8925 130.129 88.998 112.355 95.1329C80.6761 106.196 71.3906 126.598 47.5958 142.455C43.8695 144.93 40.0024 147.185 36.0142 149.21C32.0318 151.255 27.9365 153.072 23.7483 154.652C27.976 153.163 32.117 151.438 36.1519 149.485C40.1831 147.519 44.0974 145.322 47.8752 142.905Z" fill="white"/>
<path d="M115.093 91.1926C117.117 90.5123 119.142 89.7712 121.232 89.2124C122.264 88.9208 123.289 88.5928 124.334 88.3337C129.448 87.0864 128.039 87.4104 130.614 86.888C131.667 86.6855 132.716 86.4466 133.777 86.2725C140.167 85.3249 143.674 84.7053 153.004 84.6527C155.146 84.7296 157.296 84.7215 159.431 84.9361C161.961 85.1346 162.156 85.1427 162.634 85.2115C168.89 86.0214 165.821 85.6164 168.979 86.1712C171.202 86.5762 171.539 86.641 172.118 86.807C174.187 87.3537 176.272 87.8275 178.293 88.5361C197.678 94.4525 218.233 110.217 233.54 121.483C240.534 126.593 247.475 131.773 254.553 136.786C258.092 139.291 261.672 141.747 265.292 144.152C268.917 146.553 272.582 148.853 276.291 151.121C288.128 158.24 294.109 160.407 300.066 161.958C320.094 166.744 338.487 157.665 363.347 149.841C375.54 146.035 388.907 142.694 401.546 145.387C388.895 142.366 375.56 145.456 363.128 149.1C345.578 154.288 337.297 157.892 325.873 160.269C316.964 162.12 311.756 161.86 309.12 161.775C308.691 161.775 308.748 161.775 306.731 161.569C304.082 161.295 301.465 160.777 298.911 160.022C291.234 157.835 283.402 153.393 277.202 149.615C273.558 147.339 269.881 145.023 266.297 142.621C262.713 140.22 259.166 137.762 255.651 135.235C248.625 130.197 241.676 125.026 234.699 119.895C217.942 107.516 207.656 99.648 191.073 91.4842C187.117 89.6168 183.043 88.0111 178.876 86.6774C176.807 85.9566 174.665 85.4626 172.543 84.9199C172.009 84.778 171.468 84.6632 170.923 84.5757C167.335 83.9035 166.874 83.8104 166.064 83.7294C161.322 83.1463 162.601 83.292 161.176 83.1827C155.507 82.7778 158.066 82.964 152.992 82.8102C148.622 82.8165 144.257 83.087 139.92 83.62C126.557 85.1467 112.614 89.6943 102.576 95.0153C100.612 95.9629 98.7489 97.1049 96.8497 98.1699C95.9142 98.7287 95.0071 99.3361 94.0838 99.9152C74.9378 112.124 65.624 126.427 39.0876 139.985C35.2406 141.961 31.3113 143.773 27.2996 145.419C31.3491 143.867 35.3243 142.147 39.2253 140.26C74.5329 123.042 79.7041 104.305 115.093 91.1926Z" fill="white"/>
<path d="M95.1852 96.8578C105.666 90.0545 117.238 85.1028 129.395 82.2189C144.14 78.7647 163.686 76.8898 178.779 79.8945C180.804 80.3399 182.828 80.6801 184.817 81.2875C210.895 88.4713 232.317 105.913 255.007 121.228C266.062 128.719 283.637 140.536 298.761 145.93C302.742 147.347 306.913 148.4 311.185 148.618C328.44 149.53 348.218 141.022 372.693 136.47C381.088 134.976 389.264 134.235 397.533 136.284C389.195 134 381.104 134.587 372.604 135.944C347.189 140.183 328.157 148.274 311.266 147.189C303.167 146.691 295.19 143.018 287.957 139.333C284.252 137.45 280.616 135.417 277.024 133.283C269.872 129.019 262.956 124.342 256.068 119.616C233.354 104.135 213.418 87.9975 188.364 80.1901C180.962 78.1654 184.371 79.0846 179.123 77.9427C163.776 74.9339 143.893 76.9141 128.978 80.5384C116.697 83.5982 105.032 88.7443 94.4927 95.7523C76.1283 107.775 68.0414 117.806 42.6592 130.849C38.9444 132.766 35.1784 134.578 31.3611 136.284C35.2162 134.664 39.0281 132.943 42.7969 131.121C68.2925 118.672 77.8412 107.933 95.1852 96.8578Z" fill="white"/>
<path d="M155.09 72.897C181.124 70.8439 191.308 73.4112 205.243 78.4083C222.607 84.7215 242.498 97.8783 255.294 105.945C276.647 119.345 291.74 130.052 309.153 133.234C334.511 138.045 368.053 120.074 393.042 127.46C368.231 119.442 333.992 136.798 309.416 131.845C292.691 128.586 277.83 118.012 256.323 104.333C234.257 90.2531 210.94 74.7962 185.319 71.1273C179.264 70.3822 173.16 70.1249 167.064 70.3579C137.381 71.261 118.235 77.2056 97.7082 89.7672C81.17 99.8909 71.2609 108.954 46.6157 121.997C43.0602 123.887 39.467 125.712 35.8359 127.472C66.685 113.57 81.3644 100.984 98.3723 90.8646C115.591 80.5627 132.339 74.6504 155.09 72.897Z" fill="white"/>
<path d="M61.4248 108.087C94.5092 90.063 110.683 74.598 144.877 68.8072L147.736 68.3415C164.132 65.8511 188.583 65.9118 193.973 66.4302C195.875 66.5756 197.768 66.8257 199.642 67.1793C201.464 67.4749 200.294 67.236 205.275 68.3294C224.255 73.4844 237.23 81.1784 255.209 91.124C275.105 102.24 294.283 113.846 307.112 117.652C325.233 122.852 342.715 117.223 365.182 116.231C376.634 115.7 383.161 117.041 388.13 118.798C375.241 113.846 358.164 115.814 341.921 117.47C314.64 120.345 307.861 118.167 286.532 106.642C260.972 92.8734 236.513 76.6146 214.233 68.8801C207.502 66.7339 206.636 66.58 201.452 65.4583C198.55 64.9247 195.62 64.5475 192.677 64.3285C181.087 63.9438 161.901 64.4257 150.36 66.175C147.068 66.6448 149.198 66.2925 144.577 67.074C110.966 72.7757 92.1969 89.9172 61.1575 107.622C57.7911 109.547 54.403 111.436 50.9933 113.291C47.5836 115.146 44.1659 116.981 40.74 118.798C44.2307 117.081 47.697 115.34 51.1391 113.574C54.5812 111.809 58.0097 109.98 61.4248 108.087Z" fill="white"/>
<path d="M65.693 99.5266C100.065 80.1133 111.78 72.9214 130.578 66.831C143.387 62.7086 152.587 61.0119 163.237 59.8456C172.501 58.9021 181.812 58.5072 191.122 58.6632C209.705 59.1572 224.838 62.1781 254.845 76.8859C268.241 83.4542 281.232 90.9417 294.903 97.1334C300.365 99.5874 305.974 101.993 310.623 103.398C333.592 110.351 359.881 100.345 382.805 110.4C362.031 100.608 338.172 107.808 316.393 103.475C290.829 98.0243 251.245 67.3088 213.625 59.1248C199.505 56.0553 183.116 56.2537 168.643 57.4402C153.616 58.5454 138.83 61.8287 124.747 67.1874C107.933 73.6261 96.3153 80.7734 65.4136 99.0609L55.7475 104.759C52.5268 106.648 49.2953 108.531 46.053 110.408C49.3412 108.631 52.6226 106.837 55.8973 105.026L65.693 99.5266Z" fill="white"/>
<path d="M213.005 52.0623C228.681 53.6254 239.659 57.0148 254.416 62.9959C282.236 74.3345 294.331 83.3446 313.765 89.3176C333.911 95.4688 357.402 91.9458 377.075 102.312C367.445 96.8861 357.034 94.9667 345.987 93.5048C325.5 90.7836 317.758 91.4072 294.259 79.8661C287.779 76.7035 281.434 73.3019 274.922 70.1473C236.565 51.548 218.889 48.3489 183.343 49.3248C182.727 49.3248 182.768 49.3248 177.912 49.6164C130.554 52.8074 96.3839 73.6461 51.7949 102.288C93.0188 77.4243 125.496 57.2294 170.008 52.2931C184.546 50.6936 201.246 50.896 213.005 52.0623Z" fill="white"/>
<path d="M111.91 62.5749C115.959 60.6433 118.45 59.554 121.414 58.2379C121.948 58.0152 127.679 55.5531 131.084 54.3342C146.61 48.5596 161.245 45.3726 176.617 43.607C184.311 42.6433 194.872 42.3112 202.639 42.2626C213.086 42.3881 221.947 42.6392 233.739 44.6923C240.562 45.9044 247.273 47.6787 253.804 49.9972C306.075 68.5317 298.907 71.5891 331.87 80.1457C338.637 81.8748 345.428 83.4865 352.041 85.6854C358.654 87.8842 365.088 90.6581 370.956 94.4566C367.359 91.9656 363.533 89.8244 359.528 88.0624C358.718 87.7142 357.937 87.3376 357.123 87.0177C355.503 86.3819 353.883 85.7218 352.215 85.163C345.618 82.8143 338.852 81.0487 332.125 79.1738C313.72 74.0795 311.068 72.3828 293.315 63.9558C280.685 57.9058 267.576 52.9371 254.44 48.1627C251.731 47.1666 246.969 45.6561 244.373 45.0122C227.871 40.4727 209.203 39.7479 192.134 40.4768C185.124 40.7229 178.131 41.3407 171.186 42.3274C155.527 44.4968 140.219 48.709 125.654 54.8565C122.135 56.3346 118.223 58.1569 116.073 59.149C94.1649 69.7668 78.5581 79.5585 57.9138 94.4566C68.3534 87.37 79.4774 79.9999 93.3793 72.2451C99.4576 68.8273 105.625 65.5837 111.91 62.5749Z" fill="white"/>
<path d="M213.528 32.3779C234.844 32.8355 254.136 36.6217 273.055 43.1374C279.437 45.3444 285.706 47.8915 291.918 50.5763C298.13 53.2611 304.289 56.1201 310.469 58.9223C313.56 60.3234 316.664 61.7057 319.783 63.069L329.129 67.0942C335.353 69.779 341.512 72.6015 347.469 75.8249C350.455 77.4285 353.368 79.1536 356.208 81.0002C359.058 82.8373 361.814 84.8173 364.465 86.9327C359.266 82.5541 353.663 78.6789 347.732 75.3592C341.824 71.9941 335.705 69.0177 329.509 66.1912C326.428 64.7779 323.31 63.4213 320.224 62.0323C317.138 60.6434 314.061 59.1977 310.995 57.7682C304.856 54.8809 298.737 51.9491 292.537 49.159C286.338 46.3689 280.061 43.7246 273.63 41.4649C254.598 34.7549 235.399 30.8715 213.556 30.3531C170.06 29.5149 133.19 40.5862 97.1979 62.8301C85.6708 70.0222 74.7057 78.0782 64.397 86.9286C109.836 50.9489 156.304 31.1387 213.528 32.3779Z" fill="white"/>
<path d="M253.816 24.8904C266.791 27.4574 279.489 31.2694 291.732 36.2735C303.986 41.2784 315.717 47.4813 326.752 54.7918C332.275 58.4283 337.615 62.3334 342.772 66.507C347.928 70.6807 352.872 75.0852 357.605 79.7205C338.971 60.6913 316.705 45.5975 292.129 35.334C242.668 14.5965 186.133 14.5925 136.729 35.3138C112.159 45.5994 89.8997 60.7044 71.2651 79.7367C90.8768 60.5786 113.242 46.0247 137.126 36.2735C174.074 21.1541 214.643 17.1965 253.816 24.8904Z" fill="white"/>
</g>
<defs>
<radialGradient id="paint0_radial_330_1312" cx="0" cy="0" r="1" gradientUnits="userSpaceOnUse" gradientTransform="translate(121.172 112.71) rotate(45.4836) scale(360.541 1291.26)">
<stop stop-color="#7500CF"/>
<stop offset="0.213542" stop-color="#913EE3" stop-opacity="0.741799"/>
<stop offset="0.473958" stop-color="#A265EF" stop-opacity="0.57794"/>
<stop offset="0.802083" stop-color="#8829DC" stop-opacity="0.826654"/>
<stop offset="1" stop-color="#7500CF"/>
</radialGradient>
</defs>
</svg>
