<svg width="239" height="41" viewBox="0 0 239 41" fill="none" xmlns="http://www.w3.org/2000/svg">
<path fill-rule="evenodd" clip-rule="evenodd" d="M19.6307 0.345358C19.3753 0.405145 18.838 0.627502 18.4367 0.839617C16.9057 1.64853 17.105 1.34031 8.48772 16.2259C2.91523 25.8521 0.480297 30.1658 0.286024 30.7559C-0.043584 31.7577 -0.0994153 33.8254 0.176633 34.811C0.712828 36.7261 2.218 38.5944 3.89533 39.4268C5.50368 40.225 5.70512 40.247 11.0364 40.2065L15.7909 40.1704L16.6488 39.8579C17.7367 39.4616 19.058 38.5898 19.7092 37.8386C19.987 37.5181 20.6784 36.4647 21.2457 35.4975L22.2771 33.7391L20.834 33.7055C20.0401 33.687 19.3278 33.6959 19.2508 33.7253C19.174 33.7547 18.8582 34.2154 18.5492 34.7491C17.6499 36.3022 16.7394 37.0561 15.3174 37.425C14.7458 37.5733 13.854 37.6098 10.8102 37.6098C6.81517 37.6098 6.15082 37.5457 5.21041 37.0696C3.041 35.9714 2.06461 33.3167 3.03359 31.1511C3.3302 30.4883 18.4307 4.43544 18.7974 3.95392C19.1872 3.44204 20.1539 2.9473 20.918 2.86882C23.107 2.64372 24.9071 4.90361 24.1742 6.95675C24.0834 7.21067 21.5995 11.5719 18.654 16.6485C15.7087 21.7251 13.2298 26.0662 13.1454 26.2955C12.879 27.0188 12.941 28.4074 13.2712 29.1138C13.6297 29.8809 14.3066 30.5653 15.0786 30.9413C15.6596 31.2244 15.7524 31.2315 19.7959 31.3088C23.394 31.3775 24.0425 31.4187 24.8769 31.6316C28.0985 32.4535 30.9264 34.5362 32.5893 37.3121C33.0847 38.1391 33.5512 38.6518 34.2565 39.1448C35.3066 39.8785 36.058 40.132 37.3878 40.2009C38.785 40.2733 39.7977 40.0142 40.906 39.3005C43.2728 37.7767 44.1908 34.6137 43.0041 32.0717C42.8206 31.6787 41.5211 29.3742 40.1162 26.9505C37.9055 23.1367 37.4565 22.4385 36.7786 21.7604C35.3845 20.366 33.9924 19.7555 31.9903 19.6605C30.0149 19.5667 28.6175 19.9887 27.0721 21.146C26.1091 21.8672 25.6696 22.4824 23.7538 25.7922L22.1526 28.5583H19.1915H16.2306L15.9211 28.1919C15.7508 27.9904 15.6115 27.7066 15.6115 27.5611C15.6115 27.4156 17.9579 23.2529 20.8256 18.3103C23.6933 13.3678 26.2203 8.94879 26.4411 8.49026C27.9745 5.30509 26.3977 1.58339 23.037 0.455524C22.2543 0.192793 20.5224 0.136817 19.6307 0.345358ZM112.33 20.2215V33.5605H114.601H116.873V25.1556V16.7508L120.191 16.7955C123.055 16.8341 123.589 16.8703 124.098 17.0607C124.884 17.3545 125.62 18.1089 125.973 18.982L126.258 19.6855L126.292 26.623L126.327 33.5605H128.6H130.874L130.83 25.968C130.792 19.3788 130.76 18.2909 130.591 17.736C130.067 16.0149 129.232 15.0124 127.692 14.2558C126.105 13.476 125.596 13.4071 120.968 13.3463L116.873 13.2924V10.0875V6.88243H114.601H112.33V20.2215ZM161.466 10.0981V13.3137H159.972H158.477V14.6238V15.9339H159.965H161.453L161.494 22.5737C161.531 28.6103 161.555 29.2729 161.753 29.8684C162.39 31.7846 163.399 32.7649 165.26 33.2751C165.715 33.3998 166.692 33.4859 168.131 33.5282L170.313 33.5922V32.2662V30.9403H169.171C166.868 30.9403 165.658 30.4193 165.072 29.1754L164.754 28.4988L164.719 22.2164L164.684 15.9339H167.499H170.313V14.6238V13.3137H167.504H164.694V10.0981V6.88243H163.08H161.466V10.0981ZM143.326 13.1898C139.909 13.5817 137.829 14.762 136.801 16.8924C135.876 18.8069 135.492 21.8809 135.733 25.4306C135.896 27.8376 136.114 28.8874 136.721 30.1896C137.506 31.8744 138.513 32.7099 140.386 33.2299C141.286 33.4795 141.576 33.4912 147.927 33.5323L154.532 33.575V31.8472V30.1194L148.823 30.0792C142.429 30.0342 142.408 30.0316 141.507 29.1688C140.83 28.5198 140.309 26.8725 140.306 25.3725L140.305 24.8663H146.705H153.105L153.689 24.5719C154.673 24.075 155.1 23.2239 155.213 21.5315C155.291 20.3663 155.105 18.7661 154.765 17.6695C153.86 14.7506 150.977 13.2513 146.045 13.1345C145.025 13.1103 143.802 13.1352 143.326 13.1898ZM227.466 13.2092C222.355 13.7992 220.379 16.6657 220.377 23.4967C220.375 29.535 221.683 32.2934 225.015 33.2736C225.643 33.4583 226.454 33.4882 231.973 33.5293L238.219 33.5757V32.258V30.9403L232.869 30.9389C227.083 30.9373 226.786 30.9103 225.719 30.2877C225.009 29.8732 224.554 29.2261 224.181 28.1036C223.918 27.3104 223.638 25.6055 223.635 24.7808L223.634 24.5166L230.299 24.483L236.964 24.4494L237.498 24.1515C237.91 23.9215 238.115 23.6922 238.395 23.1473C238.748 22.4601 238.757 22.3982 238.748 20.8252C238.734 18.2089 238.191 16.5911 236.907 15.3343C235.118 13.5831 231.426 12.7521 227.466 13.2092ZM53.988 15.0361V16.7586L59.4576 16.7929L64.9272 16.8272L65.447 17.1236C65.7675 17.3064 66.0876 17.6255 66.2819 17.9557C66.5543 18.4188 66.603 18.6558 66.6421 19.7067L66.6873 20.9222L61.4435 20.9602C56.2991 20.9975 56.1869 21.0035 55.5181 21.2713C54.1804 21.8071 53.1904 23.0365 52.7188 24.7472C52.4208 25.8279 52.4225 28.7684 52.7216 29.8684C53.279 31.9175 54.4461 33.0987 56.2501 33.4396C57.1426 33.6082 68.1366 33.6003 68.9315 33.4304C69.7255 33.2607 70.4527 32.6968 70.8367 31.9526L71.1439 31.3572V24.6281C71.1439 17.9845 71.1404 17.8882 70.8753 17.0481C70.4173 15.597 69.6049 14.5782 68.4099 13.9558C67.2629 13.3584 66.7391 13.318 60.1151 13.3158L53.988 13.3137V15.0361ZM83.159 13.3947C82.2027 13.4928 80.8932 13.8402 80.0825 14.2109C78.4742 14.9466 77.4599 16.2109 76.9153 18.1594C76.6638 19.0592 76.6538 19.3298 76.6119 26.3253L76.5685 33.5605H78.8429H81.1171L81.153 26.9207C81.1885 20.3257 81.1907 20.2754 81.4678 19.4564C81.6936 18.7889 81.8757 18.5048 82.423 17.9651C83.3388 17.0624 83.9877 16.8594 86.1777 16.7915L87.8216 16.7406V15.0272V13.3137L85.6995 13.3328C84.5323 13.3433 83.3891 13.3712 83.159 13.3947ZM96.8111 13.4414C94.1518 13.7854 92.3391 15.0074 91.2934 17.1612C89.6209 20.6059 89.7761 27.2686 91.5996 30.3004C92.2404 31.3659 93.0134 32.0827 94.0981 32.6171C95.7759 33.4438 96.0421 33.4735 102.258 33.5284L107.787 33.5774V31.8494V30.1215L103.035 30.0786C98.4564 30.0374 98.2557 30.026 97.5496 29.7674C96.1805 29.2658 95.4838 28.3817 95.031 26.5708C94.7273 25.3567 94.7306 21.3251 95.0362 20.1373C95.334 18.9796 95.8735 18.1108 96.5914 17.6321C97.7387 16.8674 97.9342 16.8412 102.855 16.7956L107.309 16.7543V15.034V13.3137L102.437 13.3289C99.7574 13.3372 97.2258 13.3878 96.8111 13.4414ZM173.578 13.4626C173.612 13.5446 175.561 18.0062 177.908 23.3776C180.256 28.7489 182.202 33.2544 182.232 33.3898C182.267 33.5437 181.724 34.8254 180.784 36.8081C179.957 38.5527 179.28 40.011 179.28 40.0487C179.28 40.0865 180.037 40.1026 180.961 40.0843L182.643 40.0513L188.673 26.7272C191.989 19.399 194.702 13.3815 194.702 13.3552C194.702 13.3288 193.939 13.3221 193.007 13.3403L191.312 13.3733L187.696 21.5911C185.708 26.1109 184.044 29.8089 183.998 29.8089C183.953 29.8089 182.348 26.0991 180.432 21.5649L176.948 13.321L175.232 13.3173C173.904 13.3146 173.53 13.3475 173.578 13.4626ZM200.18 13.4744C199.45 13.6772 198.83 14.1582 198.497 14.7796L198.229 15.2789L198.197 27.6353L198.165 39.9918H199.781H201.397V36.7761V33.5605H204.915C206.85 33.5605 208.854 33.5044 209.368 33.4358C213.918 32.8291 215.86 29.8256 215.862 23.3928C215.864 17.5207 214.242 14.573 210.472 13.5982C209.433 13.3295 201.063 13.2288 200.18 13.4744ZM231.499 15.8853C232.76 16.1446 233.584 16.5743 234.284 17.3367C235.003 18.121 235.38 19.2075 235.398 20.5505C235.417 21.9899 235.882 21.8888 229.24 21.8888C223.949 21.8888 223.634 21.8769 223.634 21.6773C223.634 21.0525 223.917 19.368 224.127 18.7488C224.699 17.0559 225.851 16.1641 227.909 15.8187C228.877 15.6564 230.537 15.6873 231.499 15.8853ZM209.525 16.2905C210.554 16.6616 211.415 17.5007 211.788 18.4964C212.318 19.9055 212.413 20.4826 212.479 22.663C212.555 25.1478 212.425 26.4517 211.964 27.8416C211.416 29.4917 210.249 30.4815 208.448 30.8217C208.103 30.887 206.375 30.9403 204.609 30.9403H201.397V23.7852V16.6302L201.756 16.2723L202.116 15.9143L205.432 15.9625C208.548 16.0078 208.797 16.0276 209.525 16.2905ZM147.06 16.7094C148.837 17.0826 150.048 17.9819 150.41 19.1958C150.756 20.3553 150.584 21.1878 149.955 21.4065C149.727 21.4856 147.88 21.5315 144.933 21.5315H140.271L140.346 20.7252C140.62 17.7882 142.049 16.5887 145.327 16.5454C145.82 16.5389 146.6 16.6127 147.06 16.7094ZM32.4925 22.3782C33.3171 22.5501 34.3574 23.1019 34.8967 23.6533C35.3537 24.1205 40.3964 32.7031 40.6732 33.4845C41.1607 34.8612 40.5209 36.4455 39.185 37.1699C38.3821 37.6052 37.6909 37.685 36.8455 37.4401C35.953 37.1817 35.4255 36.6921 34.4231 35.192C32.4932 32.3042 29.3778 30.0582 26.0373 29.1461L25.0846 28.886L26.4386 26.5487C27.9082 24.0118 28.5093 23.279 29.5277 22.7825C30.5461 22.2863 31.4559 22.1622 32.4925 22.3782ZM66.6607 26.9373C66.6607 29.2681 66.6412 29.5086 66.4321 29.7659L66.2036 30.0471H62.3164C57.9021 30.0471 58.0554 30.0794 57.4551 29.0241C57.1882 28.5551 57.1564 28.3648 57.1582 27.2483C57.16 26.2044 57.2024 25.919 57.4146 25.5213C57.7242 24.9411 58.0371 24.647 58.4884 24.5123C58.6762 24.4562 60.5919 24.4057 62.7453 24.4001L66.6607 24.3899V26.9373Z" fill="black"/>
</svg>
