<svg width="235" height="40" viewBox="0 0 235 40" fill="none" xmlns="http://www.w3.org/2000/svg">
<path fill-rule="evenodd" clip-rule="evenodd" d="M19.2926 0.127096C19.0416 0.186884 18.5136 0.409241 18.1192 0.621355C16.6146 1.43027 16.8104 1.12204 8.34156 16.0077C2.86503 25.6338 0.472027 29.9476 0.281098 30.5377C-0.0428335 31.5394 -0.0977033 33.6071 0.173591 34.5928C0.700553 36.5079 2.17981 38.3762 3.82825 39.2085C5.4089 40.0067 5.60688 40.0288 10.8463 39.9883L15.5189 39.9522L16.3621 39.6397C17.4313 39.2433 18.7298 38.3715 19.3698 37.6203C19.6429 37.2999 20.3223 36.2464 20.8798 35.2792L21.8935 33.5209L20.4752 33.4873C19.695 33.4687 18.995 33.4776 18.9193 33.507C18.8438 33.5365 18.5335 33.9971 18.2298 34.5308C17.346 36.084 16.4511 36.8379 15.0537 37.2067C14.4919 37.355 13.6154 37.3916 10.624 37.3916C6.69781 37.3916 6.0449 37.3275 5.12069 36.8513C2.98864 35.7531 2.02906 33.0984 2.98135 30.9329C3.27286 30.2701 18.1133 4.21717 18.4737 3.73566C18.8568 3.22377 19.8069 2.72904 20.5578 2.65055C22.7091 2.42546 24.4782 4.68535 23.7579 6.73849C23.6687 6.99241 21.2275 11.3537 18.3328 16.4302C15.4382 21.5068 13.002 25.8479 12.919 26.0772C12.6572 26.8005 12.7181 28.1892 13.0426 28.8956C13.395 29.6627 14.0602 30.347 14.8189 30.723C15.3899 31.0061 15.4811 31.0132 19.455 31.0905C22.9911 31.1593 23.6285 31.2005 24.4485 31.4133C27.6146 32.2352 30.3938 34.318 32.0281 37.0938C32.515 37.9208 32.9734 38.4336 33.6666 38.9265C34.6986 39.6603 35.437 39.9137 36.7439 39.9827C38.1171 40.0551 39.1124 39.7959 40.2016 39.0823C42.5276 37.5584 43.4298 34.3954 42.2636 31.8535C42.0832 31.4605 40.8061 29.1559 39.4254 26.7323C37.2528 22.9185 36.8115 22.2202 36.1453 21.5422C34.7752 20.1478 33.4071 19.5373 31.4394 19.4422C29.4981 19.3484 28.1247 19.7705 26.6059 20.9278C25.6595 21.6489 25.2276 22.2642 23.3448 25.5739L21.7712 28.3401H18.8611H15.9511L15.6469 27.9736C15.4796 27.7721 15.3427 27.4883 15.3427 27.3429C15.3427 27.1973 17.6486 23.0346 20.467 18.092C23.2853 13.1496 25.7688 8.73053 25.9858 8.272C27.4928 5.08683 25.9431 1.36512 22.6403 0.237262C21.871 -0.0254687 20.169 -0.081445 19.2926 0.127096ZM110.396 20.0032V33.3422H112.628H114.86V24.9373V16.5325L118.121 16.5772C120.936 16.6158 121.46 16.652 121.961 16.8424C122.733 17.1363 123.457 17.8906 123.804 18.7637L124.084 19.4673L124.118 26.4047L124.151 33.3422H126.386H128.62L128.577 25.7497C128.54 19.1606 128.508 18.0726 128.342 17.5177C127.827 15.7966 127.007 14.7942 125.494 14.0376C123.934 13.2577 123.434 13.1889 118.885 13.128L114.86 13.0742V9.86923V6.66417H112.628H110.396V20.0032ZM158.686 9.87983V13.0955H157.217H155.748V14.4056V15.7157H157.211H158.673L158.713 22.3554C158.75 28.392 158.773 29.0547 158.968 29.6502C159.594 31.5663 160.586 32.5466 162.414 33.0569C162.861 33.1816 163.821 33.2677 165.236 33.3099L167.38 33.3739V32.048V30.7221H166.258C163.994 30.7221 162.805 30.201 162.23 28.9571L161.917 28.2805L161.883 21.9981L161.848 15.7157H164.614H167.38V14.4056V13.0955H164.619H161.858V9.87983V6.66417H160.272H158.686V9.87983ZM140.858 12.9715C137.5 13.3635 135.456 14.5437 134.445 16.6742C133.536 18.5887 133.159 21.6626 133.395 25.2123C133.556 27.6193 133.77 28.6692 134.366 29.9714C135.138 31.6561 136.128 32.4916 137.969 33.0116C138.853 33.2612 139.138 33.2729 145.38 33.314L151.871 33.3567V31.629V29.9011L146.261 29.861C139.976 29.816 139.955 29.8133 139.071 28.9506C138.405 28.3015 137.893 26.6542 137.89 25.1542L137.889 24.648H144.179H150.469L151.042 24.3536C152.01 23.8567 152.429 23.0057 152.54 21.3133C152.617 20.148 152.434 18.5478 152.1 17.4513C151.211 14.5323 148.378 13.0331 143.53 12.9162C142.528 12.8921 141.325 12.917 140.858 12.9715ZM223.549 12.9909C218.526 13.5809 216.584 16.4474 216.582 23.2784C216.58 29.3167 217.866 32.0751 221.14 33.0553C221.758 33.24 222.555 33.2699 227.978 33.311L234.117 33.3575V32.0398V30.7221L228.859 30.7206C223.173 30.7191 222.881 30.692 221.832 30.0694C221.135 29.6549 220.687 29.0079 220.321 27.8854C220.062 27.0922 219.787 25.3873 219.784 24.5625L219.783 24.2984L226.333 24.2648L232.883 24.2312L233.408 23.9332C233.814 23.7032 234.015 23.474 234.29 22.9291C234.636 22.2419 234.646 22.18 234.637 20.6069C234.623 17.9907 234.089 16.3728 232.827 15.116C231.069 13.3649 227.441 12.5338 223.549 12.9909ZM53.0584 14.8179V16.5403L58.4337 16.5746L63.8091 16.6089L64.32 16.9053C64.635 17.0881 64.9496 17.4072 65.1405 17.7375C65.4082 18.2005 65.4561 18.4375 65.4945 19.4885L65.539 20.704L60.3854 20.742C55.3297 20.7792 55.2193 20.7852 54.5621 21.053C53.2474 21.5889 52.2744 22.8182 51.8109 24.5289C51.5181 25.6096 51.5198 28.5502 51.8137 29.6502C52.3615 31.6993 53.5085 32.8805 55.2815 33.2213C56.1586 33.39 66.9632 33.382 67.7445 33.2122C68.5249 33.0424 69.2395 32.4785 69.6168 31.7344L69.9188 31.1389V24.4098C69.9188 17.7663 69.9154 17.6699 69.6548 16.8298C69.2047 15.3787 68.4063 14.36 67.2318 13.7375C66.1046 13.1401 65.5898 13.0998 59.0799 13.0975L53.0584 13.0955V14.8179ZM81.727 13.1765C80.7871 13.2745 79.5002 13.6219 78.7035 13.9927C77.1228 14.7283 76.126 15.9927 75.5908 17.9411C75.3436 18.8409 75.3338 19.1115 75.2926 26.107L75.25 33.3422H77.4852H79.7203L79.7555 26.7025C79.7904 20.1074 79.7926 20.0571 80.0649 19.2381C80.2869 18.5707 80.4658 18.2865 81.0037 17.7469C81.9037 16.8441 82.5415 16.6412 84.6937 16.5733L86.3093 16.5223V14.809V13.0955L84.2237 13.1145C83.0766 13.125 81.9532 13.1529 81.727 13.1765ZM95.144 13.2232C92.5305 13.5671 90.749 14.7892 89.7213 16.943C88.0777 20.3876 88.2302 27.0504 90.0222 30.0821C90.652 31.1476 91.4117 31.8644 92.4777 32.3988C94.1266 33.2255 94.3883 33.2553 100.497 33.3102L105.931 33.3591V31.6311V29.9033L101.26 29.8604C96.761 29.8192 96.5637 29.8077 95.8698 29.5492C94.5242 29.0475 93.8396 28.1635 93.3945 26.3526C93.0961 25.1385 93.0994 21.1069 93.3997 19.919C93.6924 18.7614 94.2225 17.8925 94.9281 17.4139C96.0556 16.6491 96.2477 16.6229 101.084 16.5773L105.461 16.536V14.8157V13.0955L100.673 13.1106C98.0395 13.1189 95.5516 13.1696 95.144 13.2232ZM170.589 13.2444C170.622 13.3263 172.538 17.788 174.845 23.1593C177.152 28.5306 179.064 33.0361 179.094 33.1715C179.128 33.3254 178.595 34.6072 177.671 36.5898C176.858 38.3345 176.192 39.7927 176.192 39.8305C176.192 39.8682 176.936 39.8843 177.845 39.8661L179.498 39.8331L185.424 26.5089C188.683 19.1807 191.349 13.1633 191.349 13.1369C191.349 13.1105 190.599 13.1038 189.683 13.122L188.017 13.155L184.464 21.3728C182.51 25.8926 180.875 29.5906 180.83 29.5906C180.785 29.5906 179.208 25.8808 177.325 21.3466L173.901 13.1028L172.214 13.0991C170.91 13.0963 170.541 13.1292 170.589 13.2444ZM196.733 13.2561C196.016 13.459 195.406 13.9399 195.079 14.5613L194.815 15.0606L194.784 27.4171L194.752 39.7735H196.341H197.929V36.5579V33.3422H201.386C203.288 33.3422 205.258 33.2861 205.763 33.2175C210.234 32.6108 212.143 29.6073 212.145 23.1745C212.147 17.3024 210.553 14.3547 206.848 13.3799C205.827 13.1112 197.601 13.0106 196.733 13.2561ZM227.513 15.6671C228.752 15.9263 229.562 16.356 230.249 17.1184C230.956 17.9028 231.327 18.9892 231.344 20.3323C231.363 21.7717 231.82 21.6706 225.292 21.6706C220.092 21.6706 219.783 21.6587 219.783 21.4591C219.783 20.8343 220.061 19.1497 220.267 18.5305C220.83 16.8377 221.961 15.9459 223.985 15.6005C224.936 15.4382 226.567 15.469 227.513 15.6671ZM205.917 16.0722C206.928 16.4433 207.774 17.2824 208.141 18.2782C208.661 19.6872 208.756 20.2644 208.82 22.4447C208.894 24.9296 208.767 26.2335 208.314 27.6233C207.776 29.2735 206.628 30.2633 204.859 30.6034C204.519 30.6687 202.821 30.7221 201.085 30.7221H197.929V23.567V16.4119L198.282 16.054L198.635 15.696L201.895 15.7442C204.957 15.7895 205.201 15.8094 205.917 16.0722ZM144.528 16.4911C146.274 16.8644 147.465 17.7637 147.82 18.9775C148.16 20.1371 147.991 20.9696 147.373 21.1882C147.149 21.2673 145.333 21.3133 142.437 21.3133H137.856L137.929 20.507C138.199 17.5699 139.603 16.3705 142.824 16.3271C143.309 16.3207 144.075 16.3944 144.528 16.4911ZM31.933 22.1599C32.7434 22.3318 33.7658 22.8836 34.2958 23.435C34.7449 23.9022 39.7008 32.4848 39.9728 33.2662C40.4519 34.6429 39.8231 36.2273 38.5102 36.9516C37.7211 37.3869 37.0419 37.4667 36.211 37.2218C35.3339 36.9634 34.8155 36.4738 33.8303 34.9737C31.9337 32.086 28.8719 29.8399 25.5889 28.9278L24.6526 28.6677L25.9833 26.3304C27.4276 23.7935 28.0183 23.0607 29.0193 22.5643C30.0201 22.068 30.9142 21.9439 31.933 22.1599ZM65.5128 26.719C65.5128 29.0498 65.4936 29.2904 65.2881 29.5476L65.0636 29.8288H61.2433C56.905 29.8288 57.0556 29.8611 56.4657 28.8059C56.2035 28.3369 56.1722 28.1465 56.174 27.03C56.1757 25.9861 56.2173 25.7007 56.4259 25.3031C56.7302 24.7228 57.0377 24.4288 57.4812 24.2941C57.6658 24.238 59.5485 24.1875 61.6648 24.1819L65.5128 24.1716V26.719Z" fill="#7E02DD"/>
</svg>
