<svg width="656" height="571" viewBox="0 0 656 571" fill="none" xmlns="http://www.w3.org/2000/svg">
<path d="M601.713 478.969C616.202 453.872 609.435 419.522 586.503 384.17C563.587 348.844 524.607 312.655 474.982 284.003C425.356 255.352 374.526 239.689 332.474 237.506C290.392 235.322 257.261 246.637 242.771 271.734C228.281 296.831 235.049 331.181 257.981 366.533C280.896 401.859 319.877 438.048 369.502 466.699C419.127 495.35 469.958 511.014 512.01 513.196C554.091 515.38 587.223 504.066 601.713 478.969Z" fill="url(#paint0_radial_670_897)"/>
<path d="M601.713 478.969C616.202 453.872 609.435 419.522 586.503 384.17C563.587 348.844 524.607 312.655 474.982 284.003C425.356 255.352 374.526 239.689 332.474 237.506C290.392 235.322 257.261 246.637 242.771 271.734C228.281 296.831 235.049 331.181 257.981 366.533C280.896 401.859 319.877 438.048 369.502 466.699C419.127 495.35 469.958 511.014 512.01 513.196C554.091 515.38 587.223 504.066 601.713 478.969Z" stroke="url(#paint1_linear_670_897)" style="mix-blend-mode:screen"/>
<path d="M53.4227 478.969C67.9124 504.066 101.044 515.38 143.126 513.197C185.177 511.014 236.008 495.351 285.633 466.699C335.258 438.048 374.239 401.859 397.155 366.533C420.087 331.181 426.854 296.831 412.364 271.734C397.875 246.637 364.743 235.323 322.661 237.507C280.61 239.689 229.779 255.353 180.154 284.004C130.529 312.655 91.5481 348.844 68.6324 384.17C45.7002 419.522 38.9331 453.872 53.4227 478.969Z" fill="url(#paint2_radial_670_897)"/>
<path d="M53.4227 478.969C67.9124 504.066 101.044 515.38 143.126 513.197C185.177 511.014 236.008 495.351 285.633 466.699C335.258 438.048 374.239 401.859 397.155 366.533C420.087 331.181 426.854 296.831 412.364 271.734C397.875 246.637 364.743 235.323 322.661 237.507C280.61 239.689 229.779 255.353 180.154 284.004C130.529 312.655 91.5481 348.844 68.6324 384.17C45.7002 419.522 38.9331 453.872 53.4227 478.969Z" stroke="url(#paint3_linear_670_897)" style="mix-blend-mode:screen"/>
<path d="M327.1 414.97C356.079 414.97 382.444 391.934 401.593 354.399C420.729 316.89 432.579 265.037 432.579 207.735C432.579 150.433 420.729 98.5801 401.593 61.0714C382.444 23.5356 356.079 0.500006 327.1 0.500005C298.121 0.500003 271.756 23.5356 252.607 61.0714C233.471 98.5801 221.621 150.433 221.621 207.735C221.621 265.037 233.471 316.89 252.607 354.399C271.756 391.934 298.121 414.97 327.1 414.97Z" fill="url(#paint4_radial_670_897)"/>
<path d="M327.1 414.97C356.079 414.97 382.444 391.934 401.593 354.399C420.729 316.89 432.579 265.037 432.579 207.735C432.579 150.433 420.729 98.5801 401.593 61.0714C382.444 23.5356 356.079 0.500006 327.1 0.500005C298.121 0.500003 271.756 23.5356 252.607 61.0714C233.471 98.5801 221.621 150.433 221.621 207.735C221.621 265.037 233.471 316.89 252.607 354.399C271.756 391.934 298.121 414.97 327.1 414.97Z" stroke="url(#paint5_linear_670_897)" style="mix-blend-mode:screen"/>
<g opacity="0.8">
<path fill-rule="evenodd" clip-rule="evenodd" d="M339.796 550.943C339.793 550.962 339.793 550.981 339.796 550.999C339.886 551.609 339.731 552.23 339.364 552.726C338.996 553.221 338.447 553.55 337.837 553.641C337.227 553.731 336.606 553.576 336.111 553.209C335.615 552.841 335.286 552.292 335.195 551.682L306.721 360.096L339.796 550.943ZM328.067 530.721C328.07 530.701 328.07 530.68 328.067 530.66L300.931 356.22L323.458 531.311C323.496 531.614 323.594 531.906 323.746 532.17C323.898 532.435 324.1 532.668 324.341 532.854C324.583 533.041 324.859 533.178 325.153 533.258C325.447 533.338 325.755 533.359 326.058 533.321C326.36 533.282 326.652 533.184 326.917 533.032C327.182 532.881 327.414 532.678 327.601 532.437C327.787 532.195 327.925 531.92 328.005 531.625C328.085 531.331 328.106 531.023 328.067 530.721ZM316.334 510.406C316.333 510.414 316.333 510.423 316.333 510.431C316.332 510.444 316.333 510.458 316.334 510.471C316.365 510.776 316.335 511.084 316.246 511.378C316.158 511.671 316.012 511.944 315.818 512.182C315.624 512.419 315.385 512.616 315.115 512.761C314.844 512.906 314.548 512.996 314.243 513.026C313.938 513.057 313.63 513.027 313.336 512.939C313.043 512.85 312.77 512.704 312.532 512.51C312.295 512.316 312.098 512.077 311.953 511.807C311.808 511.537 311.718 511.241 311.688 510.935L295.624 351.759L316.334 510.406ZM304.611 490.235C304.614 490.21 304.614 490.185 304.611 490.16L290.857 346.708L299.964 490.527C300.003 491.144 300.285 491.719 300.748 492.127C301.212 492.536 301.818 492.743 302.434 492.704C303.05 492.666 303.626 492.384 304.034 491.92C304.442 491.457 304.65 490.851 304.611 490.235ZM292.892 470.031C292.896 470.336 292.839 470.639 292.726 470.922C292.612 471.205 292.444 471.464 292.231 471.682C292.018 471.9 291.764 472.074 291.484 472.195C291.203 472.315 290.902 472.378 290.597 472.382C290.291 472.386 289.989 472.329 289.705 472.216C289.422 472.103 289.164 471.935 288.946 471.721C288.727 471.508 288.553 471.254 288.433 470.974C288.313 470.693 288.249 470.392 288.245 470.087L286.703 341.16L292.892 469.947C292.89 469.975 292.89 470.003 292.892 470.031ZM281.154 449.869V449.776L283.171 335.124L276.508 449.6C276.472 450.216 276.683 450.821 277.093 451.282C277.503 451.743 278.08 452.022 278.696 452.058C279.313 452.093 279.918 451.883 280.379 451.472C280.84 451.062 281.119 450.485 281.154 449.869ZM280.346 328.712L269.394 429.675V429.781C269.353 430.088 269.251 430.383 269.095 430.65C268.938 430.917 268.73 431.15 268.483 431.335C268.235 431.52 267.953 431.654 267.653 431.729C267.353 431.804 267.041 431.818 266.735 431.77C266.43 431.723 266.137 431.615 265.873 431.453C265.61 431.291 265.382 431.078 265.202 430.827C265.022 430.575 264.894 430.29 264.825 429.989C264.757 429.687 264.749 429.375 264.803 429.071L280.346 328.712ZM257.61 409.638L278.26 321.909L253.112 408.453C252.939 409.045 253.009 409.682 253.306 410.222C253.603 410.763 254.102 411.164 254.694 411.336C255.286 411.509 255.923 411.439 256.463 411.142C257.004 410.846 257.405 410.346 257.577 409.754L257.61 409.638ZM276.968 314.8L245.747 389.685C245.747 389.712 245.728 389.743 245.711 389.772L245.711 389.772L245.711 389.772L245.703 389.786C245.698 389.793 245.695 389.8 245.691 389.806C245.558 390.081 245.372 390.326 245.144 390.529C244.915 390.732 244.649 390.887 244.361 390.987C244.073 391.087 243.767 391.129 243.463 391.111C243.158 391.093 242.86 391.015 242.585 390.882C242.31 390.748 242.065 390.562 241.862 390.334C241.659 390.106 241.504 389.84 241.404 389.551C241.304 389.263 241.262 388.958 241.28 388.653C241.298 388.348 241.376 388.05 241.509 387.775L276.968 314.8ZM233.782 369.774L276.531 307.434L230.032 367.033C229.844 367.273 229.706 367.549 229.625 367.843C229.544 368.137 229.521 368.444 229.559 368.747C229.596 369.05 229.693 369.343 229.844 369.608C229.994 369.874 230.196 370.107 230.436 370.295C230.677 370.482 230.952 370.621 231.247 370.702C231.541 370.783 231.848 370.806 232.151 370.768C232.454 370.73 232.747 370.634 233.012 370.483C233.277 370.332 233.511 370.131 233.698 369.89C233.707 369.879 233.719 369.867 233.73 369.854C233.756 369.827 233.782 369.8 233.782 369.774ZM218.657 346.299L276.968 300.069L221.673 349.849L221.566 349.942C221.326 350.132 221.052 350.273 220.759 350.357C220.465 350.44 220.158 350.465 219.854 350.431C219.551 350.396 219.258 350.301 218.991 350.153C218.724 350.004 218.489 349.805 218.299 349.566C218.109 349.327 217.968 349.052 217.885 348.759C217.801 348.465 217.776 348.158 217.811 347.855C217.846 347.551 217.94 347.258 218.088 346.991C218.237 346.724 218.436 346.489 218.675 346.299H218.657ZM278.264 292.961L207.393 325.682H207.389C207.112 325.81 206.862 325.992 206.656 326.216C206.449 326.441 206.288 326.704 206.183 326.99C206.077 327.277 206.03 327.581 206.042 327.886C206.054 328.191 206.127 328.491 206.255 328.768C206.383 329.045 206.564 329.294 206.789 329.501C207.013 329.708 207.276 329.868 207.563 329.974C207.849 330.079 208.154 330.127 208.459 330.114C208.764 330.102 209.063 330.03 209.34 329.901L209.461 329.841L278.264 292.961ZM196.121 305.181L280.346 286.13L197.268 309.684L197.148 309.716C196.85 309.783 196.542 309.792 196.241 309.74C195.94 309.688 195.652 309.578 195.394 309.415C195.135 309.252 194.912 309.04 194.736 308.791C194.559 308.541 194.434 308.26 194.366 307.962C194.299 307.664 194.291 307.356 194.343 307.055C194.394 306.754 194.505 306.466 194.668 306.208C194.83 305.95 195.043 305.726 195.292 305.55C195.541 305.374 195.823 305.248 196.121 305.181ZM398.469 307.435L550.178 187.295C550.661 186.912 550.972 186.353 551.043 185.741C551.114 185.129 550.939 184.514 550.556 184.031C550.174 183.548 549.615 183.236 549.003 183.165C548.391 183.094 547.775 183.269 547.292 183.652L547.25 183.689L398.469 307.435ZM523.683 183.764L398.032 300.07L526.796 187.221C527.26 186.815 527.544 186.241 527.585 185.626C527.626 185.011 527.421 184.404 527.014 183.94C526.608 183.476 526.035 183.193 525.419 183.152C524.804 183.111 524.198 183.316 523.734 183.722L523.683 183.764ZM396.74 292.96L500.133 183.871L500.184 183.815C500.631 183.437 501.205 183.242 501.789 183.269C502.374 183.296 502.927 183.542 503.338 183.959C503.749 184.375 503.987 184.932 504.006 185.517C504.024 186.102 503.821 186.672 503.437 187.114L396.74 292.96ZM476.519 183.987L394.654 286.153L480.092 186.96C480.291 186.729 480.443 186.461 480.539 186.171C480.634 185.881 480.672 185.575 480.649 185.271C480.626 184.966 480.544 184.669 480.407 184.397C480.269 184.124 480.079 183.881 479.848 183.682C479.617 183.483 479.349 183.331 479.059 183.236C478.769 183.14 478.463 183.103 478.158 183.125C477.854 183.148 477.557 183.23 477.285 183.368C477.012 183.505 476.769 183.695 476.57 183.926L476.519 183.987ZM391.824 279.708L452.914 184.182C452.921 184.17 452.928 184.158 452.935 184.146C452.945 184.131 452.955 184.117 452.965 184.103C453.14 183.853 453.362 183.639 453.62 183.475C453.877 183.311 454.164 183.199 454.464 183.146C454.765 183.092 455.073 183.099 455.371 183.165C455.669 183.23 455.951 183.354 456.201 183.529C456.452 183.704 456.665 183.926 456.829 184.183C456.993 184.441 457.105 184.728 457.159 185.028C457.212 185.329 457.206 185.637 457.14 185.935C457.074 186.233 456.95 186.515 456.775 186.765L391.824 279.708ZM429.281 184.489L388.302 273.705L433.458 186.524C433.598 186.253 433.684 185.957 433.71 185.653C433.736 185.349 433.702 185.043 433.609 184.752C433.517 184.461 433.368 184.191 433.172 183.958C432.975 183.725 432.735 183.532 432.464 183.392C432.193 183.252 431.897 183.166 431.593 183.14C431.289 183.114 430.983 183.148 430.692 183.241C430.401 183.333 430.131 183.482 429.898 183.678C429.665 183.875 429.472 184.115 429.332 184.386L429.281 184.489ZM384.129 268.156L405.676 184.851L405.709 184.73C405.893 184.142 406.304 183.652 406.851 183.367C407.397 183.082 408.034 183.026 408.622 183.21C409.21 183.395 409.7 183.806 409.985 184.352C410.27 184.899 410.326 185.536 410.141 186.124L384.129 268.156ZM382.108 185.204C382.106 185.251 382.106 185.297 382.108 185.344L379.376 263.129L386.755 185.669C386.785 185.364 386.755 185.056 386.667 184.762C386.578 184.469 386.433 184.195 386.239 183.958C386.044 183.721 385.805 183.524 385.535 183.379C385.265 183.234 384.969 183.144 384.664 183.113C384.359 183.083 384.051 183.113 383.757 183.201C383.464 183.29 383.19 183.435 382.953 183.629C382.716 183.824 382.519 184.063 382.374 184.333C382.229 184.603 382.139 184.899 382.108 185.204ZM358.661 185.757C358.571 185.147 358.728 184.526 359.096 184.032C359.464 183.537 360.014 183.209 360.624 183.12C361.234 183.031 361.855 183.187 362.349 183.555C362.844 183.924 363.172 184.473 363.261 185.083L374.069 258.645L358.689 185.901C358.684 185.872 358.678 185.847 358.672 185.823C358.667 185.801 358.663 185.779 358.661 185.757ZM335.346 186.356C335.361 186.383 335.377 186.41 335.377 186.435L368.28 254.792L339.624 184.549C339.391 183.978 338.941 183.523 338.372 183.285C337.804 183.046 337.165 183.043 336.594 183.276C336.023 183.509 335.569 183.959 335.33 184.527C335.091 185.095 335.088 185.735 335.321 186.305C335.326 186.322 335.336 186.339 335.346 186.356ZM312.148 186.859C312.126 186.833 312.104 186.802 312.085 186.775L312.069 186.752C311.896 186.5 311.775 186.216 311.712 185.917C311.65 185.618 311.646 185.31 311.702 185.01C311.759 184.71 311.874 184.424 312.041 184.168C312.207 183.913 312.423 183.692 312.675 183.52C312.927 183.348 313.211 183.226 313.509 183.164C313.808 183.101 314.116 183.097 314.416 183.154C314.717 183.21 315.003 183.325 315.258 183.492C315.514 183.659 315.734 183.874 315.907 184.126L362.034 251.61L312.148 186.859ZM288.854 187.067L288.938 187.151L355.413 249.133L292.19 183.815C291.977 183.596 291.722 183.421 291.441 183.3C291.16 183.18 290.858 183.115 290.552 183.112C290.246 183.108 289.942 183.164 289.658 183.278C289.374 183.391 289.115 183.559 288.896 183.773C288.677 183.987 288.502 184.241 288.381 184.522C288.261 184.803 288.196 185.106 288.193 185.412C288.189 185.717 288.245 186.021 288.359 186.305C288.472 186.589 288.64 186.848 288.854 187.067ZM265.686 187.341L265.602 187.276C265.133 186.888 264.835 186.332 264.773 185.726C264.71 185.121 264.887 184.515 265.266 184.039C265.646 183.563 266.197 183.255 266.801 183.181C267.405 183.106 268.014 183.272 268.497 183.643L348.462 247.451L265.686 187.341ZM242.318 187.411L242.397 187.462L341.217 246.573L244.864 183.522C244.348 183.184 243.72 183.065 243.116 183.191C242.513 183.317 241.984 183.678 241.646 184.193C241.309 184.709 241.19 185.338 241.316 185.941C241.442 186.545 241.802 187.074 242.318 187.411ZM219.056 187.537L218.982 187.5C218.459 187.191 218.078 186.69 217.92 186.103C217.762 185.517 217.84 184.892 218.137 184.363C218.434 183.833 218.926 183.441 219.509 183.27C220.092 183.099 220.718 183.163 221.254 183.448L333.782 246.573L219.056 187.537ZM195.628 187.555L195.693 187.588L326.538 247.428L197.696 183.374C197.141 183.099 196.5 183.057 195.914 183.255C195.328 183.453 194.845 183.876 194.571 184.431C194.297 184.985 194.254 185.626 194.452 186.212C194.65 186.798 195.073 187.281 195.628 187.555ZM172.297 187.625L172.232 187.597C171.954 187.471 171.703 187.292 171.494 187.069C171.285 186.847 171.122 186.585 171.014 186.3C170.906 186.014 170.856 185.71 170.865 185.405C170.875 185.099 170.945 184.799 171.07 184.521C171.196 184.243 171.375 183.992 171.598 183.783C171.821 183.574 172.082 183.411 172.368 183.303C172.654 183.195 172.958 183.145 173.263 183.154C173.568 183.164 173.868 183.234 174.147 183.359L319.587 249.133L172.297 187.625ZM148.831 187.644H148.887L312.966 251.61L150.634 183.364C150.351 183.233 150.045 183.161 149.733 183.151C149.421 183.141 149.111 183.193 148.82 183.306C148.529 183.419 148.264 183.589 148.04 183.806C147.816 184.023 147.638 184.283 147.517 184.571C147.396 184.858 147.334 185.167 147.335 185.479C147.336 185.791 147.399 186.099 147.522 186.386C147.645 186.673 147.824 186.932 148.049 187.148C148.274 187.364 148.54 187.533 148.831 187.644ZM125.454 187.662L125.403 187.639C125.111 187.532 124.844 187.368 124.616 187.157C124.389 186.945 124.206 186.69 124.079 186.407C123.952 186.123 123.883 185.817 123.877 185.507C123.87 185.196 123.925 184.887 124.04 184.599C124.155 184.31 124.326 184.047 124.544 183.826C124.762 183.605 125.022 183.429 125.309 183.31C125.596 183.191 125.904 183.131 126.215 183.133C126.525 183.135 126.832 183.199 127.118 183.322L306.721 254.792L125.454 187.662ZM300.917 258.645L138.748 203.609V203.628C138.459 203.53 138.154 203.489 137.849 203.509C137.545 203.529 137.247 203.609 136.973 203.743C136.7 203.878 136.455 204.066 136.254 204.295C136.052 204.524 135.898 204.791 135.8 205.08C135.702 205.369 135.661 205.674 135.681 205.979C135.701 206.284 135.781 206.581 135.915 206.855C136.05 207.129 136.238 207.373 136.467 207.575C136.696 207.776 136.963 207.93 137.252 208.028H137.312L300.917 258.645ZM150.332 223.883L295.624 263.105L149.189 228.386H149.119C148.524 228.225 148.017 227.834 147.71 227.299C147.403 226.765 147.321 226.13 147.481 225.535C147.642 224.94 148.033 224.433 148.567 224.126C149.102 223.818 149.737 223.736 150.332 223.897V223.883ZM290.852 268.156L161.856 244.17V244.184C161.255 244.081 160.637 244.219 160.136 244.568C159.636 244.917 159.293 245.449 159.181 246.049C159.069 246.649 159.198 247.269 159.539 247.774C159.881 248.28 160.408 248.631 161.006 248.752H161.089L290.852 268.156ZM173.361 264.472L286.698 273.705L173.082 269.109H173.008C172.392 269.059 171.821 268.766 171.42 268.295C171.02 267.824 170.823 267.214 170.873 266.597C170.923 265.981 171.215 265.41 171.686 265.01C172.157 264.609 172.768 264.412 173.384 264.462L173.361 264.472ZM283.176 279.708L184.792 284.787L184.783 284.759C184.477 284.775 184.178 284.85 183.902 284.981C183.627 285.112 183.379 285.297 183.174 285.523C182.97 285.75 182.812 286.015 182.709 286.303C182.607 286.591 182.562 286.896 182.578 287.201C182.593 287.506 182.669 287.805 182.8 288.081C182.931 288.357 183.115 288.604 183.342 288.809C183.569 289.014 183.834 289.172 184.121 289.274C184.409 289.377 184.714 289.421 185.02 289.406H185.131L283.176 279.708ZM351.5 530.558V530.493L312.952 363.278L346.947 531.488C347.008 531.787 347.127 532.071 347.298 532.323C347.469 532.576 347.688 532.793 347.942 532.961C348.197 533.13 348.482 533.246 348.782 533.304C349.081 533.362 349.389 533.361 349.688 533.3C349.987 533.239 350.271 533.119 350.524 532.949C350.777 532.778 350.994 532.559 351.162 532.304C351.33 532.05 351.447 531.764 351.505 531.465C351.563 531.165 351.561 530.857 351.5 530.558ZM363.205 510.034C363.208 510.057 363.208 510.08 363.205 510.103C363.365 510.699 363.281 511.333 362.973 511.867C362.665 512.4 362.158 512.79 361.563 512.95C360.967 513.109 360.333 513.026 359.799 512.718C359.266 512.41 358.876 511.902 358.717 511.307L319.587 365.732L363.205 510.034ZM374.91 489.603L374.878 489.528L326.539 367.414L370.529 491.159C370.631 491.447 370.789 491.712 370.993 491.939C371.198 492.165 371.445 492.349 371.721 492.481C371.996 492.612 372.295 492.687 372.6 492.703C372.905 492.719 373.21 492.674 373.498 492.572C373.785 492.47 374.05 492.312 374.277 492.107C374.504 491.903 374.688 491.656 374.819 491.38C374.95 491.104 375.026 490.805 375.041 490.5C375.057 490.195 375.013 489.89 374.91 489.603ZM386.513 468.981L386.555 469.064C386.716 469.342 386.818 469.65 386.855 469.969C386.891 470.289 386.861 470.612 386.766 470.919C386.671 471.226 386.513 471.51 386.303 471.752C386.093 471.995 385.834 472.192 385.544 472.33C385.254 472.468 384.938 472.544 384.617 472.554C384.296 472.564 383.976 472.507 383.678 472.387C383.38 472.267 383.111 472.086 382.886 471.857C382.661 471.627 382.486 471.354 382.373 471.053L333.783 368.292L386.513 468.981ZM398.153 448.475L398.092 448.382L341.217 368.292L394.24 450.984C394.573 451.503 395.098 451.869 395.7 452C396.303 452.132 396.932 452.019 397.451 451.686C397.97 451.353 398.335 450.828 398.467 450.226C398.599 449.624 398.486 448.994 398.153 448.475ZM409.584 427.765L409.672 427.858C409.887 428.082 410.056 428.347 410.167 428.637C410.278 428.927 410.33 429.236 410.319 429.547C410.309 429.857 410.236 430.163 410.106 430.444C409.975 430.726 409.789 430.979 409.559 431.188C409.329 431.397 409.06 431.558 408.766 431.66C408.473 431.763 408.163 431.806 407.852 431.787C407.542 431.768 407.239 431.686 406.961 431.548C406.683 431.409 406.436 431.216 406.233 430.98L348.461 367.414L409.584 427.765ZM421.052 407.199C421.017 407.17 420.979 407.144 420.94 407.12L355.413 365.732L418.338 410.972C418.586 411.15 418.866 411.278 419.164 411.348C419.461 411.417 419.768 411.428 420.07 411.379C420.371 411.33 420.659 411.222 420.919 411.061C421.178 410.9 421.403 410.69 421.582 410.442C421.76 410.194 421.887 409.914 421.957 409.617C422.027 409.32 422.038 409.012 421.988 408.711C421.939 408.41 421.831 408.121 421.671 407.862C421.51 407.602 421.3 407.377 421.052 407.199ZM432.171 386.549L432.31 386.6C432.882 386.831 433.339 387.28 433.58 387.848C433.821 388.415 433.826 389.056 433.595 389.627C433.364 390.199 432.915 390.656 432.348 390.897C431.78 391.138 431.14 391.143 430.568 390.912L362.034 363.255L432.171 386.549ZM443.5 366.094H443.355L368.279 360.095L442.844 370.699C443.455 370.786 444.075 370.627 444.568 370.256C445.062 369.886 445.387 369.335 445.474 368.724C445.561 368.113 445.402 367.493 445.032 367C444.661 366.507 444.11 366.181 443.5 366.094ZM454.745 345.751C455.361 345.708 455.969 345.91 456.436 346.315C456.903 346.72 457.189 347.293 457.233 347.91C457.277 348.526 457.074 349.134 456.669 349.601C456.264 350.067 455.691 350.354 455.075 350.398L374.069 356.22L454.596 345.765L454.745 345.751ZM466.073 325.487L465.957 325.52L379.366 351.759L467.188 329.999C467.484 329.926 467.763 329.795 468.009 329.614C468.255 329.433 468.462 329.205 468.62 328.944C468.778 328.683 468.882 328.393 468.928 328.091C468.974 327.789 468.96 327.482 468.887 327.185C468.813 326.889 468.682 326.61 468.501 326.365C468.32 326.119 468.093 325.911 467.832 325.753C467.57 325.596 467.28 325.491 466.979 325.445C466.677 325.4 466.369 325.414 466.073 325.487ZM477.411 305.265L477.509 305.223C477.793 305.112 478.097 305.058 478.402 305.064C478.707 305.07 479.008 305.137 479.288 305.259C479.567 305.382 479.82 305.558 480.031 305.778C480.243 305.998 480.409 306.258 480.52 306.542C480.631 306.827 480.685 307.13 480.679 307.435C480.672 307.741 480.606 308.042 480.484 308.321C480.361 308.601 480.185 308.854 479.964 309.065C479.744 309.276 479.485 309.442 479.2 309.554L384.129 346.685L477.411 305.265ZM489.028 285.01L488.944 285.052L388.302 341.16L491.123 289.155C491.405 289.023 491.658 288.836 491.866 288.605C492.074 288.373 492.233 288.103 492.335 287.809C492.436 287.515 492.478 287.203 492.457 286.893C492.436 286.582 492.353 286.279 492.212 286.002C492.072 285.724 491.877 285.478 491.64 285.277C491.402 285.076 491.127 284.924 490.83 284.832C490.533 284.739 490.22 284.708 489.911 284.738C489.601 284.769 489.301 284.861 489.028 285.01ZM500.552 264.816L500.621 264.774C501.151 264.458 501.784 264.365 502.382 264.515C502.979 264.666 503.493 265.048 503.809 265.578C504.125 266.107 504.218 266.74 504.067 267.338C503.916 267.936 503.534 268.449 503.005 268.765L391.824 335.138L500.552 264.816ZM512.247 244.51L512.187 244.552L394.654 328.712L514.831 248.371C515.09 248.204 515.313 247.987 515.488 247.733C515.662 247.478 515.785 247.192 515.847 246.89C515.91 246.587 515.912 246.276 515.853 245.973C515.794 245.67 515.675 245.382 515.503 245.126C515.332 244.87 515.111 244.65 514.853 244.48C514.596 244.31 514.307 244.192 514.004 244.135C513.701 244.078 513.39 244.081 513.088 244.146C512.786 244.21 512.5 244.334 512.247 244.51ZM523.831 224.273L523.887 224.232C524.387 223.87 525.009 223.723 525.618 223.821C526.227 223.919 526.772 224.255 527.133 224.754C527.494 225.254 527.642 225.877 527.544 226.485C527.445 227.094 527.11 227.639 526.61 228L396.74 321.909L523.831 224.273ZM535.583 203.93L535.536 203.967L398.032 314.8L538.403 207.648C538.647 207.462 538.853 207.231 539.007 206.966C539.162 206.702 539.263 206.41 539.305 206.106C539.346 205.803 539.328 205.494 539.25 205.197C539.172 204.901 539.037 204.623 538.852 204.379C538.667 204.135 538.435 203.929 538.171 203.775C537.906 203.62 537.614 203.519 537.31 203.478C537.007 203.436 536.698 203.454 536.401 203.532C536.105 203.61 535.827 203.745 535.583 203.93Z" fill="#3B0663"/>
</g>
<defs>
<radialGradient id="paint0_radial_670_897" cx="0" cy="0" r="1" gradientUnits="userSpaceOnUse" gradientTransform="translate(278.375 216.471) rotate(59.8023) scale(385.589 323.172)">
<stop offset="0.265625" stop-color="#7500CF" stop-opacity="0"/>
<stop offset="0.598958" stop-color="#B15AF3" stop-opacity="0.580413"/>
<stop offset="0.869792" stop-color="#7500CF"/>
</radialGradient>
<linearGradient id="paint1_linear_670_897" x1="460.766" y1="640.593" x2="443.241" y2="253.839" gradientUnits="userSpaceOnUse">
<stop stop-color="white"/>
<stop offset="1" stop-color="white" stop-opacity="0"/>
</linearGradient>
<radialGradient id="paint2_radial_670_897" cx="0" cy="0" r="1" gradientUnits="userSpaceOnUse" gradientTransform="translate(442.421 330.199) rotate(179.802) scale(385.589 323.173)">
<stop offset="0.234375" stop-color="#7500CF" stop-opacity="0"/>
<stop offset="0.5625" stop-color="#B15AF3" stop-opacity="0.47619"/>
<stop offset="1" stop-color="#7500CF"/>
</radialGradient>
<linearGradient id="paint3_linear_670_897" x1="-49.204" y1="189.065" x2="285.883" y2="467.132" gradientUnits="userSpaceOnUse">
<stop stop-color="white"/>
<stop offset="1" stop-color="white" stop-opacity="0"/>
</linearGradient>
<radialGradient id="paint4_radial_670_897" cx="0" cy="0" r="1" gradientUnits="userSpaceOnUse" gradientTransform="translate(292.617 385.292) rotate(-63.9765) scale(368.759 309.067)">
<stop offset="0.244792" stop-color="#7500CF" stop-opacity="0"/>
<stop offset="0.536458" stop-color="#B15AF3" stop-opacity="0.490083"/>
<stop offset="0.839929" stop-color="#7500CF"/>
</radialGradient>
<linearGradient id="paint5_linear_670_897" x1="538.106" y1="105.885" x2="272.226" y2="249.514" gradientUnits="userSpaceOnUse">
<stop stop-color="white"/>
<stop offset="1" stop-color="white" stop-opacity="0"/>
</linearGradient>
</defs>
</svg>
