<svg width="1008" height="706" viewBox="0 0 1008 706" fill="none" xmlns="http://www.w3.org/2000/svg">
<path d="M915.59 323.68H1007.35L987 255H899.3L874.18 196.37H956.82L905.29 127.73H832.51L785.6 69.09H848.75L766.05 0.459991H711.69L774.42 64.09H720.21L671.42 0.5H618.48L653.33 64.13H597.94L577 0.5H525L532 64.13H476.08L483.08 0.5H431L410.09 64.13H354.67L389.52 0.5H336.58L287.79 64.13H233.58L296.31 0.5H242L159.3 69.13H222.4L175.49 127.77H102.71L51.1804 196.41H133.82L108.7 255H21.0004L0.650391 323.64H92.4104V382.28H0.650391L21.0004 451H108.7L133.82 509.63H51.1804L102.71 578.27H175.49L222.4 636.91H159.25L242 705.5H296.36L233.63 641.87H287.84L336.63 705.5H389.57L354.72 641.87H410.11L431 705.5H483.08L476.08 641.87H531.92L524.92 705.5H577L597.91 641.87H653.3L618.45 705.5H671.39L720.18 641.87H774.39L711.66 705.5H766.02L848.72 636.87H785.6L832.51 578.23H905.29L956.82 509.59H874.18L899.3 451H987L1007.35 382.36H915.59V323.68ZM910.59 382.32H824.68V323.68H910.59V382.32ZM733.77 382.32V323.68H819.68V382.32H733.77ZM725.56 446L733.46 387.36H819.17L808.1 446H725.56ZM637.93 446L642.67 387.36H728.41L720.51 446H637.93ZM689.33 573.27L709.33 514.63H785L757 573.27H689.33ZM705.58 509.63H629L637.39 451H719.53L705.58 509.63ZM547.33 509.63L550.12 451H632.34L624 509.59L547.33 509.63ZM543 573.23L547 514.59H623L611 573.23H543ZM469.93 573.23L465.93 514.59H542L538 573.23H469.93ZM396.93 573.23L384.93 514.59H460.93L464.93 573.23H396.93ZM384 509.59L375.66 451H457.88L460.67 509.63L384 509.59ZM302.38 509.59L288.47 451H370.61L379 509.59H302.38ZM251 573.23L223 514.59H298.67L318.67 573.23H251ZM287.49 446L279.59 387.36H365.33L370.07 446H287.49ZM199.9 446L188.83 387.36H274.54L282.44 446H199.9ZM274.23 323.72V382.36H188.32V323.68L274.23 323.72ZM282.44 260L274.54 318.64H188.83L199.9 260H282.44ZM370.07 260L365.33 318.64H279.59L287.49 260H370.07ZM318.67 132.73L298.67 191.37H223L251 132.73H318.67ZM302.42 196.37H379L370.61 255H288.47L302.42 196.37ZM460.67 196.37L457.88 255H375.66L384 196.41L460.67 196.37ZM465 132.77L461 191.41H385L397 132.77H465ZM538.07 132.77L542.07 191.41H466L470 132.77H538.07ZM611.07 132.77L623.07 191.41H547L543 132.77H611.07ZM624 196.41L632.34 255H550.12L547.33 196.37L624 196.41ZM705.62 196.41L719.53 255H637.39L629 196.41H705.62ZM757 132.77L785 191.41H709.34L689.34 132.77H757ZM720.51 260L728.41 318.64H642.67L637.93 260H720.51ZM808.1 260L819.17 318.64H733.46L725.56 260H808.1ZM642.86 382.32V323.68H728.77V382.32H642.86ZM550.31 446L551.89 387.36H637.65L632.91 446H550.31ZM462.88 451H545.12L542.33 509.63H465.67L462.88 451ZM462.69 446L461.11 387.36H546.89L545.31 446H462.69ZM375.09 446L370.35 387.36H456.11L457.69 446H375.09ZM279.23 382.36V323.68H365.14V382.32L279.23 382.36ZM370.14 323.72H456.05V382.36H370.14V323.72ZM457.69 260L456.11 318.64H370.35L375.09 260H457.69ZM545.12 255H462.88L465.67 196.37H542.33L545.12 255ZM545.31 260L546.89 318.64H461.11L462.69 260H545.31ZM632.91 260L637.65 318.64H551.89L550.31 260H632.91ZM461.05 323.68H547V382.32H461.1L461.05 323.68ZM552 382.32V323.68H637.91V382.32H552ZM824.3 318.68L813.19 260H895.69L909.91 318.64L824.3 318.68ZM724.67 255L710.72 196.37H787.17L806.71 255H724.67ZM762.54 132.73H829.91L865.91 191.37H790.54L762.54 132.73ZM687.46 127.73L661.4 69.13H717.59L754.07 127.77L687.46 127.73ZM684.05 132.73L704.05 191.37H628.17L616.17 132.73H684.05ZM542.66 127.73L537.44 69.09H594.21L609.85 127.73H542.66ZM470.37 127.73L475.58 69.09H532.42L537.63 127.73H470.37ZM465.37 127.73H398.15L413.79 69.09H470.56L465.37 127.73ZM379.86 191.37H303.94L323.94 132.73H391.82L379.86 191.37ZM320.57 127.73H253.93L290.41 69.09H346.6L320.57 127.73ZM217.45 191.41H142.08L178.08 132.77H245.45L217.45 191.41ZM297.28 196.41L283.33 255H201.33L220.87 196.37L297.28 196.41ZM183.75 318.68H98.0904L112.31 260H194.81L183.75 318.68ZM97.4104 323.68H183.32V382.32H97.4104V323.68ZM183.75 387.32L194.81 446H112.31L98.0904 387.36L183.75 387.32ZM283.33 451L297.28 509.63H220.83L201.29 451H283.33ZM245.46 573.23H178.09L142.09 514.59H217.46L245.46 573.23ZM320.54 578.23L346.6 636.87H290.41L253.93 578.23H320.54ZM323.95 573.23L303.95 514.59H379.84L391.84 573.23H323.95ZM465.34 578.23L470.56 636.87H413.79L398.15 578.23H465.34ZM537.63 578.23L532.42 636.87H475.58L470.37 578.23H537.63ZM542.63 578.23H609.82L594.18 636.87H537.44L542.63 578.23ZM628.14 514.59H704.03L684.03 573.23H616.17L628.14 514.59ZM687.43 578.23H754.04L717.56 636.87H661.4L687.43 578.23ZM790.52 514.59H865.89L829.89 573.23H762.52L790.52 514.59ZM710.69 509.59L724.67 451H806.67L787.13 509.63L710.69 509.59ZM824.22 387.32H909.88L895.69 446H813.19L824.22 387.32ZM983.22 260.04L1000.6 318.68H915.01L900.83 260L983.22 260.04ZM812 255L792.46 196.37H868.76L893.86 255H812ZM902.81 132.73L946.81 191.37H871.81L835.81 132.73H902.81ZM723.64 5.5H764.25L834.89 64.13H781.44L723.64 5.5ZM779.2 69.13L826.11 127.77H760L723.52 69.13H779.2ZM626.92 5.5H668.92L713.92 64.13H659L626.92 5.5ZM655.92 69.13L682 127.77H615L599.37 69.13H655.92ZM530.53 5.5H573.41L592.68 64.13H537L530.53 5.5ZM434.59 5.5H477.47L471.05 64.13H415.32L434.59 5.5ZM408.59 69.13L393 127.77H326L352.06 69.13H408.59ZM339.05 5.5H381.05L349 64.13H294.09L339.05 5.5ZM173.11 64.13L243.75 5.5H284.36L226.56 64.13H173.11ZM228.8 69.13H284.52L248 127.77H181.89L228.8 69.13ZM61.1904 191.41L105.19 132.77H172.19L136.19 191.41H61.1904ZM139.26 196.41H215.56L196 255H114.14L139.26 196.41ZM7.3504 318.68L24.7304 260H107.17L92.9404 318.64L7.3504 318.68ZM24.7304 446L7.3504 387.36H92.9404L107.17 446H24.7304ZM196 451L215.54 509.63H139.24L114.14 451H196ZM105.21 573.23L61.2104 514.59H136.21L172.21 573.23H105.21ZM284.36 700.5H243.75L173.11 641.87H226.56L284.36 700.5ZM228.8 636.87L181.89 578.23H248L284.48 636.87H228.8ZM381.08 700.5H339.08L294.08 641.87H349L381.08 700.5ZM352.08 636.87L326 578.23H393L408.63 636.87H352.08ZM477.48 700.5H434.59L415.32 641.87H471.05L477.48 700.5ZM573.42 700.5H530.53L536.95 641.87H592.68L573.42 700.5ZM599.42 636.87L615 578.23H682L655.94 636.87H599.42ZM669 700.5H627L659 641.87H713.87L669 700.5ZM834.94 641.87L764.3 700.5H723.64L781.44 641.87H834.94ZM779.25 636.87H723.48L760 578.23H826.15L779.25 636.87ZM946.86 514.59L902.86 573.23H835.86L871.86 514.59H946.86ZM868.79 509.59H792.49L812 451H893.88L868.79 509.59ZM1000.7 387.32L983.27 446H900.83L915.06 387.36L1000.7 387.32Z" fill="white"/>
</svg>
