<svg width="24" height="25" viewBox="0 0 24 25" fill="none" xmlns="http://www.w3.org/2000/svg">
<path d="M12 0.218262C5.37254 0.218262 0 5.59076 0 12.2182C0 18.8456 5.37254 24.2181 12 24.2181C18.6275 24.2181 24.0001 18.8456 24.0001 12.2182C24 5.59076 18.6274 0.218262 12 0.218262ZM8.79838 18.0196H6.16366V9.50761H8.79838V18.0196ZM7.46846 8.3929C6.60799 8.3929 5.91043 7.68966 5.91043 6.8223C5.91043 5.95485 6.60809 5.25165 7.46846 5.25165C8.32884 5.25165 9.0264 5.95485 9.0264 6.8223C9.02645 7.68971 8.32889 8.3929 7.46846 8.3929ZM18.672 18.0196H16.0501V13.5515C16.0501 12.326 15.5846 11.642 14.6155 11.642C13.5609 11.642 13.01 12.3544 13.01 13.5515V18.0196H10.483V9.50761H13.01V10.654C13.01 10.654 13.7701 9.24797 15.575 9.24797C17.38 9.24797 18.672 10.3501 18.672 12.6299L18.672 18.0196Z" fill="black"/>
</svg>
