<svg width="24" height="21" viewBox="0 0 24 21" fill="none" xmlns="http://www.w3.org/2000/svg">
<path d="M24 2.92704C23.1013 3.32517 22.148 3.58651 21.1719 3.70235C22.1887 3.09298 22.9693 2.12801 23.3369 0.978258C22.3704 1.55181 21.3129 1.95591 20.2103 2.1731C19.312 1.2162 18.0324 0.618164 16.6162 0.618164C13.8968 0.618164 11.6921 2.82279 11.6921 5.54191C11.6921 5.92788 11.7357 6.30363 11.8196 6.6641C7.72744 6.45869 4.09931 4.49848 1.67072 1.51948C1.24697 2.2467 1.00416 3.0926 1.00416 3.99485C1.00416 5.70316 1.8735 7.21019 3.19462 8.09323C2.4127 8.06874 1.64798 7.85755 0.964313 7.47729C0.964031 7.49791 0.964031 7.51854 0.964031 7.53926C0.964031 9.92491 2.66128 11.915 4.91372 12.3674C4.18864 12.5646 3.42809 12.5934 2.69016 12.4518C3.31669 14.4079 5.13516 15.8314 7.28972 15.8713C5.60456 17.1918 3.48141 17.9791 1.17459 17.9791C0.777094 17.9791 0.385219 17.9557 0 17.9103C2.17903 19.3073 4.76719 20.1225 7.54781 20.1225C16.6047 20.1225 21.5573 12.6196 21.5573 6.11294C21.5573 5.89938 21.5526 5.68704 21.543 5.47591C22.507 4.77906 23.339 3.91593 24 2.92704Z" fill="black"/>
</svg>
